<?xml version="1.0" encoding="utf-8"?>
<!-- Generator: Adobe Illustrator 19.0.0, SVG Export Plug-In . SVG Version: 6.00 Build 0)  -->
<svg version="1.1" id="Layer_1" xmlns="http://www.w3.org/2000/svg" xmlns:xlink="http://www.w3.org/1999/xlink" x="0px" y="0px"
	 viewBox="0 0 1002 1002" style="enable-background:new 0 0 1002 1002;" xml:space="preserve">
<style type="text/css">
	.st0{fill:#D32F2F;}
	.st1{fill:#AD2A2A;}
	.st2{display:none;fill:#AD2A2A;}
	.st3{fill:#FFFFFF;}
</style>
<rect id="XMLID_57_" x="-1001" y="-1002" class="st0" width="3006" height="3006"/>
<path id="XMLID_64_" class="st1" d="M2003,1441.1V2003h-759.9l-1002-1002h0l-120-120c0.2-0.2-0.7-1.6-0.6-1.8c1.6-3.1,3.4-6,5-9.1
	c0.4-0.8,0.6-1.6,0.6-2.5c9.2-15.1,20.2-28.9,31.4-42.6c0.1-0.2,0.3-0.3,0.4-0.5c5.1-6.3,10.3-12.6,15.3-18.9c1-1.2,1.9-2.4,2.9-3.7
	c0.2-0.2,0.3-0.4,0.5-0.6c7.6-9.7,14.8-19.7,21.2-30.2c1-1.7,2-3.4,2.9-5.1c0.1-0.2,0.2-0.3,0.3-0.5c6.2-11.4,11.3-23.3,17.7-34.6
	c4.5-8,9.3-15.9,13.8-23.9c0.1-0.2,0.2-0.3,0.3-0.5c0.8-1.5,1.6-3,2.4-4.4c0.2-0.3,0.3-0.6,0.5-0.9c2-3.7,3.8-7.4,5.6-11.2
	c6.2-13.4,10.2-27.7,14-41.9c0-0.2,0.1-0.3,0.1-0.5c0.3-1,0.5-2,0.8-2.9c4-15.3,7.3-31.4,13.5-45.9c1.4-3.3,3-6.5,4.6-9.6
	c0.1-0.2,0.2-0.3,0.3-0.5c5-9.7,10.6-19.1,13.5-29.7c2.6-9.2,3.5-19,3.6-28.8c0-0.2,0-0.3,0-0.5c0.1-7.2-0.1-14.4-0.4-21.3
	c0.9-5.6,1.9-11.3,3-16.9c0.2-0.9,0.3-1.7,0.5-2.6c1.2-5.9,2.5-11.7,4.2-17.4c0-0.1,0.1-0.3,0.1-0.4c0-0.2,0.1-0.3,0.1-0.5
	c0.2-2.1-0.8-3.7-2.4-4.5l7.7-7.6c1.2,0.9,2.7,1.3,4.3,0.9c12.8-3.9,24.9-9.9,36.3-16.8c2.8-1.7,5.6-3.4,8.3-5.2
	c0.2-0.1,0.3-0.2,0.5-0.3c7.7-4.9,15.2-10.2,22.1-16c3.1-2.7,5.9-5.6,8.3-8.9c0.1-0.2,0.2-0.3,0.4-0.5c2.3-3.4,4.2-7.2,5.3-11.4
	c2.4-9.2,1.9-19,1.9-28.4c0-0.2,0-0.4,0-0.6l5.7-5.6l-0.3,0.1l4.1,1.3l45.3,45l9.6,9.6l14.3,14.3l100.8,100.8l17.2,17.2l16.3,16.3
	l30.3-30.3L442.3,348.5c0.5-0.5,1.1-1.6,1.4-2.3c0.3-0.6,0.5-1.2,0.4-1.9c0-0.8-0.2-1.6-0.6-2.3c-0.1-0.3-0.3-0.7-0.4-1
	c-0.2-0.4-0.5-0.7-0.9-1.1l27.8-27.8l191.1-191.1c0.7,0.4,1.5,0.6,2.5,0.7c4.1,0,8.2,0.1,11.9,1.9c0.5,0.3,1.3,0.7,2.1,1.1
	c1.7,2.3,3.5,4.5,5.7,6.2c2.7,2.1,8.2,3,9.4,0.3L2003,1441.1z"/>
<path id="XMLID_267_" class="st2" d="M1003.3,845.1l-1.3,1.1V1002H846.7l-0.5,1H367.9l-59-59.3l-5-5.1l-8.4-8.5l-38.8-38.8
	c-2.3-2.3-4.8-4.6-7.1-6.8c-4.5-4.5-8.6-8.9-13.6-13.4v0c0-0.3-0.3-0.5-0.5-0.8l-0.9-1l161.9-161.8l1.2-1.1l14.9-14.8l59-59L505,599
	l9.5-9.5l85.7-85.7l3-3l28.1-28.1l234.7,234.7l7.6,7.5l2.8,2.8l8.2,8.2l40.3,40.5L1003.3,845.1z"/>
<path id="XMLID_417_" class="st2" d="M1003.3,845.3L846.2,1003H693.8l-59-59.3l-8.9-9l-36.4-36.4L397.7,706.4L356.3,665l-1.8-1.8
	L287,595.7c0.4-2.1,0.7-4.1,1-6.2c2.6-15.5,4.5-31.1,7.5-46.5c0.5-2.7,1.1-5.4,1.6-8.1c0.4-1.8-0.2-3.3-1.1-4.4
	c-0.2-0.2-0.3-0.3-0.5-0.5c-0.1-0.1-0.1-0.1-0.2-0.2c0.1-0.2,0.1-0.5,0.2-0.7c3.7-12.9,5.9-26.2,6-39.6c0-1.1-0.4-2-1-2.9
	c0.3-1.9,0.5-3.8,0.8-5.6l84-84c0.7,0.5,1.4,1,2.1,1.5c6.7,4.9,13.5,9.7,20.5,13.9c1.5,0.9,3.1,1.8,4.6,2.7
	c6.6,3.7,13.4,6.7,20.5,8.8c0.1,0,0.2,0.1,0.3,0.1c9.3,2.7,19,3.6,29.2,1.8c0.4-0.1,0.7-0.1,1.1-0.2c2.5-0.5,5.2-1.2,7.9-2.1
	c7-2.3,14-6,19.2-11c2.3-2.3,4.2-4.8,5.5-7.6c1.6-3.3,2.4-7,2.1-11.2c-0.5-7.8-3.7-15.3-7.5-22.5c-0.5-0.9-0.9-1.7-1.4-2.6
	c-2.9-5.2-6-10.2-8.7-15.1c0,0,0,0,0,0c-2.9-5.5-5.9-11.1-9.2-16.4c-1.3-2.1-2.6-4.1-4-6.1c-0.5-0.7-1-1.3-1.4-2
	c-1.8-2.4-3.7-4.8-5.9-6.8l86.7-86.7l4.4-4.4l38.3-38.3l43.8-43.8l14.9,15.2l353.8,354V844L1003.3,845.3z"/>
<path id="XMLID_54_" class="st2" d="M935.8,489c0,69.3-14.8,135.2-41.3,194.6c-4.4,10-9.2,19.7-14.3,29.3l-29.7,9.6
	C764.9,645.9,679.5,569.2,594,492.6c-39.2-35.2-78.4-70.3-117.6-105.5c-5.7-5.1-11.4-10.2-17.1-15.4c-11.9-10.7-23.9-21.5-35.9-32.2
	c0.4-0.4,0.8-0.7,1.2-1.1c31.2-27.5,50-32.5,51-46.8c0.4-5.3-1.8-10.3,0.8-12.1c2.7-1.8,7.3,1.6,9.5,2.6
	c20,9.1,74.6-68.3,143.6-131.6c0.7-0.6,1.4-1.3,2.1-1.9c101.1,104,202.1,208,303.2,312.1C935.5,470.2,935.8,479.6,935.8,489z"/>
<path id="XMLID_53_" class="st2" d="M826.8,790.5c-0.1,0.6-0.2,1.2-0.3,1.8c-7.1,8.5-14.4,16.7-22.1,24.7
	c-86.9,90.9-209.4,147.5-345,147.5c-54.7,0-107.3-9.2-156.2-26.1c-0.6-0.8-1.2-1.5-1.8-2.2c-43.8-43.8-87.6-87.7-131.4-131.5l0,0
	c-2.2-2.3-4.5-4.5-6.7-6.7c-0.1-0.1-0.1-0.1-0.2-0.2l0.1-0.1l127-170l34.5-95.2l-0.7,0l5-15.6v0l60.5-164.8l0.4,0l0.2,0l4.4,4.3
	l0.1,0l44.2,44.4l10.2,10.2l170.3,171.1L826.8,790.5z"/>
<path id="XMLID_52_" class="st2" d="M894.4,681.6c-4.4,10-9.2,19.7-14.3,29.3c-15.4,29-33.8,56.2-54.7,81.3
	c-7.1,8.5-14.4,16.7-22.1,24.7c-17.8,12-34.5,20.5-48.2,26.4c-34.6,6-69.2,12.1-103.8,18.2c-28.3-28.4-56.5-56.8-84.8-85.2
	c0,0,0.5-0.1,0.5-0.1C507.6,716.4,447,656.5,389,596.6v0l-0.7-0.2c-14-14-28.2-28-42.2-42c0,0-0.2-0.1-0.3-0.1
	c-7.3-7.3-14.7-14.7-22-22c0,0-0.1,0-0.1,0c-1.8-1.9-4.4-3.7-6.3-5.6l10.5-10V516h1.4l26.8-23.6l0,0.2l77-68.8l14.6-13.1l28.6-26.4
	l45.4-41.3h0l4-2.8C648.7,453.7,771.6,568.1,894.4,681.6z"/>
<path id="XMLID_39_" class="st3" d="M619.3,797.7c0.4,1.2,0.5,2.4,0.5,3.7l-5.8,73.3c-0.4,5.2-5,9.3-10.6,9.3H416.2
	c-4,0-7.7-2.3-9.5-5.6L375.8,821c-0.2-0.3-0.3-0.6-0.4-0.9l-29.1-70.5c-1.1-2.5-0.9-5.4,0.3-7.8l48.3-94.5c1.2-2.3,1.4-5,0.5-7.4
	l-23.6-65.4c-0.8-2.3-0.7-4.9,0.3-7.1l39.4-83.9c4-8.4,17.1-7.7,19.9,1.1l12.3,38.2l37.5,100.4c1,2.8,3.4,5,6.4,6l80,27.3
	c3.1,1.1,5.5,3.4,6.5,6.3L619.3,797.7z"/>
<path id="XMLID_40_" class="st3" d="M389.7,254.5c0-22.9,14.5-42.6,35.3-51.8c-1.5-2.5-2.4-5.2-2.4-8.1c0-11.1,12.8-20.1,28.5-20.1
	c0.4,0,0.7,0,1.1,0c6.5-10.8,18.9-18.1,33.1-18.1c1,0,2,0,3,0.1c1.3,0.1,2.6-0.5,3.3-1.5c10.5-16,37.1-27.4,68.2-27.4
	c11.5,0,22.4,1.6,32.1,4.3c2.3-3.8,7.4-6.4,13.3-6.4c6.7,0,12.4,3.4,14.1,8.1c8.2-9.5,22.1-15.7,37.9-15.7
	c25.2,0,45.6,15.9,45.6,35.5c0,2.4-0.3,4.7-0.9,7c-0.4,1.6,0.5,3.2,2.2,3.8c16.1,5.9,27,17.1,27,29.9c0,14.6-14.1,27.1-34,32
	c-1.6,0.4-2.6,1.8-2.6,3.3c0,0.1,0,0.2,0,0.3c0,11.3-11.2,20.6-25.6,21.6c0.1,0.5,0.1,1,0.1,1.6c0,21.7-41.3,39.2-92.2,39.2
	c-11,0-21.5-0.8-31.2-2.3c0,0.2,0,0.3,0,0.5c0,9-11.6,16.3-25.8,16.3c-0.8,0-1.5,0-2.2-0.1c1,2.2,1.5,4.5,1.5,6.9
	c0,14-17.7,25.3-39.6,25.3c-2.4,0-4.7-0.1-7-0.4c-1.8-0.2-3.5,0.9-3.9,2.6c-1.9,7-8,12.1-15.3,12.1c-8.8,0-15.8-7.5-15.8-16.7
	c0-4.3,1.5-8.2,4-11.1c0.9-1,1.2-2.4,0.6-3.6c-1.4-2.6-2-5.3-2-8.2v0c0-1.6-1.3-2.9-2.9-3.3C410.1,304.1,389.7,281.5,389.7,254.5z"
	/>
<path id="XMLID_41_" class="st3" d="M873.4,884H749c-3.6,0-6.9-1.8-8.9-4.6l-83.7-117.7c-0.5-0.8-1-1.6-1.3-2.5L613.6,638
	c-0.8-2.4-2.7-4.5-5.1-5.7L506.9,581c-2.8-1.4-4.8-4-5.4-6.9l-15-74.4c-0.2-1.2-0.7-2.4-1.5-3.5l-34.5-50.7
	c-1.9-2.8-2.2-6.2-0.8-9.2l21-44.9c1.6-3.4,5.1-5.7,9.1-5.9l39-2.3c2.3-0.1,4.4-0.9,6.1-2.3l28.7-22.3c5.4-4.2,13.6-2.4,16.5,3.5
	L669,563.3c0.4,0.9,0.7,1.8,0.9,2.7l12.2,80.9c0.3,1.9,1.1,3.6,2.4,5l197,215.6C887.3,873.9,882.4,884,873.4,884z"/>
<path id="XMLID_42_" class="st3" d="M338.8,839.9c0.8,2.6,0.4,5.4-1,7.7l-19.3,31.3c-1.9,3.1-5.4,5.1-9.2,5.1H128.7
	c-8.4,0-13.5-8.8-9-15.4L236,697.3c0.7-1,1.1-2.1,1.4-3.2l53.3-227.6c0.6-2.7,2.4-5,5-6.4l72.2-39.6c2.6-1.4,4.4-3.7,5-6.5l9.7-42.3
	c2-8.8,14.6-10.7,19.6-3l3.5,5.6c1.5,2.4,1.9,5.4,0.9,8.1l-65.8,190.2c-0.5,1.5-0.7,3.1-0.4,4.7l16.4,91c0.3,1.8,0.1,3.7-0.7,5.4
	L317,761.5c-0.9,2.1-1.1,4.4-0.4,6.5L338.8,839.9z"/>
</svg>
