<?xml version="1.0" encoding="utf-8"?>
<!-- Generator: Adobe Illustrator 19.0.0, SVG Export Plug-In . SVG Version: 6.00 Build 0)  -->
<svg version="1.1" id="Layer_1" xmlns="http://www.w3.org/2000/svg" xmlns:xlink="http://www.w3.org/1999/xlink" x="0px" y="0px"
	 viewBox="0 0 960 960" style="enable-background:new 0 0 960 960;" xml:space="preserve">
<style type="text/css">
	.st0{fill:#D32F2F;}
	.st1{fill:#AD2A2A;}
	.st2{fill:#FFFFFF;stroke:#FFFFFF;stroke-width:5.466;stroke-miterlimit:10;}
	.st3{fill:#FFFFFF;}
</style>
<polygon id="XMLID_35_" class="st0" points="1919,956 1919,1916.4 1918.8,1916 959,1916 959,956 "/>
<rect id="XMLID_12_" x="0" y="956.4" class="st0" width="960" height="960"/>
<rect id="XMLID_19_" x="960" y="0" class="st0" width="960" height="960"/>
<rect id="XMLID_1_" x="0" y="0" class="st0" width="960" height="960"/>
<rect id="XMLID_2_" x="322.2" y="626.9" transform="matrix(0.7071 0.7071 -0.7071 0.7071 846.3713 -228.6876)" class="st1" width="754" height="560.8"/>
<rect id="XMLID_4_" x="648.3" y="626.9" transform="matrix(0.7071 0.7071 -0.7071 0.7071 941.889 -459.2878)" class="st1" width="754" height="560.8"/>
<polygon id="XMLID_31_" class="st1" points="1919,1730.3 1919,1914 1916.4,1916 1311.8,1916 403.9,1008.3 800.4,611.9 1145,956.4 
	"/>
<polygon id="XMLID_32_" class="st1" points="1919,1404.2 1919,1916.4 1918.8,1916 1640,1916 958.8,1235 569.2,845.5 964.7,450 
	1471.1,956.4 "/>
<path id="XMLID_9_" class="st1" d="M657.4,143.1L484.2,316.3c2.8,2.6,5.1,5.7,7.4,8.8c5.1,7.1,9.2,14.9,13.3,22.6
	c6.6,12.4,16.7,25.8,17.6,40.2c1.2,18.8-20,29.3-35.9,32.1c-29.3,5.1-54.3-11.8-77.2-28.8l-84,84c-0.3,1.9-0.5,3.8-0.8,5.6
	c0.6,0.8,1,1.8,1,2.8c-0.1,13.7-2.4,27.2-6.2,40.4c1.4,1.1,2.3,2.8,1.8,5c-4.3,20.1-6.6,40.6-10.2,60.8l483,483l396.5-396.5
	L657.4,143.1z"/>
<path id="XMLID_18_" class="st1" d="M958.8,479c0,69.3-14.8,135.2-41.3,194.6c-4.4,10-9.2,19.7-14.3,29.3l-29.7,9.6
	C787.9,635.9,702.5,559.2,617,482.6c-39.2-35.2-78.4-70.3-117.6-105.5c-5.7-5.1-11.4-10.2-17.1-15.4c-11.9-10.7-23.9-21.5-35.9-32.2
	c0.4-0.4,0.8-0.7,1.2-1.1c31.2-27.5,50-32.5,51-46.8c0.4-5.3-1.8-10.3,0.8-12.1c2.7-1.8,7.3,1.6,9.5,2.6
	c20,9.1,74.6-68.3,143.6-131.6c0.7-0.6,1.4-1.3,2.1-1.9c101.1,104,202.1,208,303.2,312.1C958.5,460.2,958.8,469.6,958.8,479z"/>
<path id="XMLID_25_" class="st1" d="M848.8,782.5c-0.1,0.6-0.2,1.2-0.3,1.8c-7.1,8.5-14.4,16.7-22.1,24.7
	c-86.9,90.9-209.4,147.5-345,147.5c-54.7,0-107.3-9.2-156.2-26.1c-0.6-0.8-1.2-1.5-1.8-2.2c-43.8-43.8-87.6-87.7-131.4-131.5l0,0
	c-2.2-2.3-4.5-4.5-6.7-6.7c-0.1-0.1-0.1-0.1-0.2-0.2l0.1-0.1l127-170l34.5-95.2l-0.7,0l5-15.6v0l60.5-164.8l0.4,0l0.2,0l4.4,4.3
	l0.1,0l44.2,44.4l10.2,10.2l170.3,171.1L848.8,782.5z"/>
<path id="XMLID_17_" class="st2" d="M655.6,223c-1.3,0.3-2.1,1.5-2.1,2.9c0,0.1,0,0.2,0,0.2c0,9.9-9.1,18-20.8,18.8
	c0,0.5,0.1,0.9,0.1,1.4c0,18.9-33.6,34.2-75,34.2c-21.4,0-40.6-4.1-54.3-10.6c-1.4-0.7-3-0.1-3.8,1.2c-1,2-2.2,3.8-3.5,5.6
	c-1,1.5-0.6,3.5,1,4.3c8.2,4,13.6,10.6,13.6,18c0,12.2-14.4,22.1-32.2,22.1c-1.9,0-3.8-0.1-5.7-0.3c-1.5-0.2-2.8,0.8-3.2,2.2
	c-1.5,6.1-6.5,10.6-12.4,10.6c-7.1,0-12.9-6.5-12.9-14.5c0-3.7,1.2-7.1,3.3-9.7c0.7-0.9,0.9-2.1,0.4-3.1c-1.1-2.2-1.7-4.7-1.7-7.2
	c0,0,0,0,0,0c0-1.4-0.9-2.6-2.2-2.9c-22-5.2-38.4-25-38.4-48.5c0-25.7,19.4-46.9,44.4-49.6c1.5-0.2,2.7-1.5,2.6-3
	c0-0.7-0.1-1.4-0.1-2.1c0-17,13.8-30.8,30.8-30.8c0.8,0,1.6,0,2.4,0.1c1.1,0.1,2.1-0.4,2.6-1.3c8.5-14,30.1-23.9,55.4-23.9
	c16.1,0,30.7,4,41.4,10.6c1.4,0.9,3.2,0.4,4-1c5.9-10.6,18.7-18,33.6-18c20.5,0,37.1,13.9,37.1,31c0,2.1-0.2,4.1-0.7,6.1
	c-0.3,1.4,0.4,2.8,1.8,3.3c13.1,5.2,22,14.9,22,26.1C683.2,207.8,671.8,218.7,655.6,223z"/>
<path id="XMLID_20_" class="st1" d="M917.4,673.6c-4.4,10-9.2,19.7-14.3,29.3c-15.4,29-33.8,56.2-54.7,81.3
	c-7.1,8.5-14.4,16.7-22.1,24.7c-17.8,12-34.5,20.5-48.2,26.4c-34.6,6-69.2,12.1-103.8,18.2c-28.3-28.4-56.5-56.8-84.8-85.2
	c0,0,0.5-0.1,0.5-0.1C530.6,708.4,470,648.5,412,588.6v0l-0.7-0.2c-14-14-28.2-28-42.2-42c0,0-0.2-0.1-0.3-0.1
	c-7.3-7.3-14.7-14.7-22-22c0,0-0.1,0-0.1,0c-1.8-1.9-4.4-3.7-6.3-5.6l10.5-10V508h1.4l26.8-23.6l0,0.2l77-68.8l14.6-13.1l28.6-26.4
	l45.4-41.3h0l4-2.8C671.7,445.7,794.6,560.1,917.4,673.6z"/>
<path id="XMLID_15_" class="st3" d="M346.4,695.9l18.1,62.7c0.7,2.3,0.4,4.7-0.8,6.7L348,792.4c-1.5,2.7-4.4,4.3-7.5,4.3H193.7
	c-6.8,0-10.9-7.5-7.3-13.3L280.9,634c0.5-0.9,0.9-1.8,1.1-2.8l43.4-198.6c0.5-2.4,2-4.4,4.1-5.6l58.7-34.5c2.1-1.2,3.6-3.3,4.1-5.6
	l7.9-36.9c1.6-7.7,11.9-9.4,15.9-2.6l2.9,4.8c1.3,2.1,1.5,4.7,0.8,7l-53.5,166c-0.4,1.3-0.5,2.7-0.3,4.1l13.3,79.4
	c0.3,1.6,0.1,3.2-0.5,4.7l-31.9,76.7C346,692,345.9,694,346.4,695.9z"/>
<path id="XMLID_14_" class="st3" d="M555.7,604.1l36.8,117.6c0.3,1,0.5,2.1,0.4,3.2l-4.7,63.8c-0.3,4.5-4.1,8-8.6,8H427.3
	c-3.3,0-6.3-1.8-7.7-4.8l-25.1-50c-0.1-0.3-0.2-0.5-0.3-0.8l-23.7-61.5c-0.9-2.2-0.8-4.7,0.3-6.8l39.2-82.4c1-2,1.1-4.3,0.4-6.5
	l-19.2-57.1c-0.7-2-0.6-4.2,0.3-6.2l32-73.2c3.2-7.4,13.9-6.7,16.2,1l10,33.4l30.5,87.6c0.9,2.4,2.8,4.4,5.2,5.3l65,23.8
	C552.9,599.4,554.9,601.5,555.7,604.1z"/>
<path id="XMLID_13_" class="st3" d="M798.9,796.7H697.8c-2.9,0-5.6-1.5-7.2-3.9l-68-102.7c-0.4-0.7-0.8-1.4-1-2.1l-33.7-105.7
	c-0.7-2.1-2.2-3.9-4.1-5l-82.6-44.7c-2.3-1.2-3.9-3.4-4.4-6l-12.2-64.9c-0.2-1.1-0.6-2.1-1.2-3l-28-44.3c-1.5-2.4-1.8-5.4-0.6-8.1
	l17.1-39.2c1.3-3,4.1-5,7.4-5.2l31.7-2c1.8-0.1,3.6-0.8,5-2l23.3-19.4c4.4-3.6,11-2.1,13.4,3l80.3,175.6c0.3,0.8,0.6,1.6,0.7,2.4
	l9.9,70.6c0.2,1.6,0.9,3.1,2,4.4l160.1,188C810.3,788.1,806.3,796.7,798.9,796.7z"/>
<rect id="XMLID_3_" x="0" y="-960" class="st0" width="960" height="960"/>
<rect id="XMLID_8_" x="-960" y="-960" class="st0" width="960" height="960"/>
<rect id="XMLID_10_" x="-960" y="0" class="st0" width="960" height="960"/>
<rect id="XMLID_11_" x="-960" y="956.4" class="st0" width="960" height="960"/>
<rect id="XMLID_21_" x="960" y="-960" class="st0" width="960" height="960"/>
</svg>
