<svg id="Layer_1" xmlns="http://www.w3.org/2000/svg" viewBox="0 0 960 960"><style>.st0{fill:#d32f2f}.st1{fill:#ad2a2a}.st3{fill:#fff}</style><path id="XMLID_35_" class="st0" d="M1919 956v960.4l-.2-.4H959V956z"/><path id="XMLID_12_" class="st0" d="M0 956.4h960v960H0z"/><path id="XMLID_19_" class="st0" d="M960 0h960v960H960z"/><path id="XMLID_1_" class="st0" d="M0 0h960v960H0z"/><path id="XMLID_2_" transform="rotate(45.001 699.25 907.313)" class="st1" d="M322.2 626.9h754v560.8h-754z"/><path id="XMLID_4_" transform="rotate(45.001 1025.37 907.31)" class="st1" d="M648.3 626.9h754v560.8h-754z"/><path id="XMLID_31_" class="st1" d="M1919 1730.3V1914l-2.6 2h-604.6l-907.9-907.7 396.5-396.4L1145 956.4z"/><path id="XMLID_32_" class="st1" d="M1919 1404.2v512.2l-.2-.4H1640l-681.2-681-389.6-389.5L964.7 450l506.4 506.4z"/><path id="XMLID_9_" class="st1" d="M657.4 143.1L484.2 316.3c2.8 2.6 5.1 5.7 7.4 8.8 5.1 7.1 9.2 14.9 13.3 22.6 6.6 12.4 16.7 25.8 17.6 40.2 1.2 18.8-20 29.3-35.9 32.1-29.3 5.1-54.3-11.8-77.2-28.8l-84 84c-.3 1.9-.5 3.8-.8 5.6.6.8 1 1.8 1 2.8-.1 13.7-2.4 27.2-6.2 40.4 1.4 1.1 2.3 2.8 1.8 5-4.3 20.1-6.6 40.6-10.2 60.8l483 483 396.5-396.5-533.1-533.2z"/><path id="XMLID_18_" class="st1" d="M958.8 479c0 69.3-14.8 135.2-41.3 194.6-4.4 10-9.2 19.7-14.3 29.3l-29.7 9.6c-85.6-76.6-171-153.3-256.5-229.9-39.2-35.2-78.4-70.3-117.6-105.5-5.7-5.1-11.4-10.2-17.1-15.4-11.9-10.7-23.9-21.5-35.9-32.2.4-.4.8-.7 1.2-1.1 31.2-27.5 50-32.5 51-46.8.4-5.3-1.8-10.3.8-12.1 2.7-1.8 7.3 1.6 9.5 2.6 20 9.1 74.6-68.3 143.6-131.6.7-.6 1.4-1.3 2.1-1.9 101.1 104 202.1 208 303.2 312.1.7 9.5 1 18.9 1 28.3z"/><path id="XMLID_25_" class="st1" d="M848.8 782.5l-.3 1.8c-7.1 8.5-14.4 16.7-22.1 24.7-86.9 90.9-209.4 147.5-345 147.5-54.7 0-107.3-9.2-156.2-26.1-.6-.8-1.2-1.5-1.8-2.2-43.8-43.8-87.6-87.7-131.4-131.5-2.2-2.3-4.5-4.5-6.7-6.7l-.2-.2.1-.1 127-170 34.5-95.2h-.7l5-15.6 60.5-164.8H412.1l4.4 4.3h.1l44.2 44.4L471 403l170.3 171.1 207.5 208.4z"/><path id="XMLID_17_" d="M655.6 223c-1.3.3-2.1 1.5-2.1 2.9v.2c0 9.9-9.1 18-20.8 18.8 0 .5.1.9.1 1.4 0 18.9-33.6 34.2-75 34.2-21.4 0-40.6-4.1-54.3-10.6-1.4-.7-3-.1-3.8 1.2-1 2-2.2 3.8-3.5 5.6-1 1.5-.6 3.5 1 4.3 8.2 4 13.6 10.6 13.6 18 0 12.2-14.4 22.1-32.2 22.1-1.9 0-3.8-.1-5.7-.3-1.5-.2-2.8.8-3.2 2.2-1.5 6.1-6.5 10.6-12.4 10.6-7.1 0-12.9-6.5-12.9-14.5 0-3.7 1.2-7.1 3.3-9.7.7-.9.9-2.1.4-3.1-1.1-2.2-1.7-4.7-1.7-7.2 0-1.4-.9-2.6-2.2-2.9-22-5.2-38.4-25-38.4-48.5 0-25.7 19.4-46.9 44.4-49.6 1.5-.2 2.7-1.5 2.6-3 0-.7-.1-1.4-.1-2.1 0-17 13.8-30.8 30.8-30.8.8 0 1.6 0 2.4.1 1.1.1 2.1-.4 2.6-1.3 8.5-14 30.1-23.9 55.4-23.9 16.1 0 30.7 4 41.4 10.6 1.4.9 3.2.4 4-1 5.9-10.6 18.7-18 33.6-18 20.5 0 37.1 13.9 37.1 31 0 2.1-.2 4.1-.7 6.1-.3 1.4.4 2.8 1.8 3.3 13.1 5.2 22 14.9 22 26.1.1 12.6-11.3 23.5-27.5 27.8z" fill="#fff" stroke="#fff" stroke-width="5.466" stroke-miterlimit="10"/><path id="XMLID_20_" class="st1" d="M917.4 673.6c-4.4 10-9.2 19.7-14.3 29.3-15.4 29-33.8 56.2-54.7 81.3-7.1 8.5-14.4 16.7-22.1 24.7-17.8 12-34.5 20.5-48.2 26.4-34.6 6-69.2 12.1-103.8 18.2-28.3-28.4-56.5-56.8-84.8-85.2l.5-.1c-59.4-59.8-120-119.7-178-179.6l-.7-.2c-14-14-28.2-28-42.2-42 0 0-.2-.1-.3-.1l-22-22h-.1c-1.8-1.9-4.4-3.7-6.3-5.6l10.5-10v-.7h1.4l26.8-23.6v.2l77-68.8 14.6-13.1 28.6-26.4 45.4-41.3 4-2.8c123 113.5 245.9 227.9 368.7 341.4z"/><path id="XMLID_15_" class="st3" d="M346.4 695.9l18.1 62.7c.7 2.3.4 4.7-.8 6.7L348 792.4c-1.5 2.7-4.4 4.3-7.5 4.3H193.7c-6.8 0-10.9-7.5-7.3-13.3L280.9 634c.5-.9.9-1.8 1.1-2.8l43.4-198.6c.5-2.4 2-4.4 4.1-5.6l58.7-34.5c2.1-1.2 3.6-3.3 4.1-5.6l7.9-36.9c1.6-7.7 11.9-9.4 15.9-2.6l2.9 4.8c1.3 2.1 1.5 4.7.8 7l-53.5 166c-.4 1.3-.5 2.7-.3 4.1l13.3 79.4c.3 1.6.1 3.2-.5 4.7l-31.9 76.7c-.9 1.9-1 3.9-.5 5.8z"/><path id="XMLID_14_" class="st3" d="M555.7 604.1l36.8 117.6c.3 1 .5 2.1.4 3.2l-4.7 63.8c-.3 4.5-4.1 8-8.6 8H427.3c-3.3 0-6.3-1.8-7.7-4.8l-25.1-50c-.1-.3-.2-.5-.3-.8l-23.7-61.5c-.9-2.2-.8-4.7.3-6.8l39.2-82.4c1-2 1.1-4.3.4-6.5l-19.2-57.1c-.7-2-.6-4.2.3-6.2l32-73.2c3.2-7.4 13.9-6.7 16.2 1l10 33.4 30.5 87.6c.9 2.4 2.8 4.4 5.2 5.3l65 23.8c2.5.9 4.5 3 5.3 5.6z"/><path id="XMLID_13_" class="st3" d="M798.9 796.7H697.8c-2.9 0-5.6-1.5-7.2-3.9l-68-102.7c-.4-.7-.8-1.4-1-2.1l-33.7-105.7c-.7-2.1-2.2-3.9-4.1-5l-82.6-44.7c-2.3-1.2-3.9-3.4-4.4-6l-12.2-64.9c-.2-1.1-.6-2.1-1.2-3l-28-44.3c-1.5-2.4-1.8-5.4-.6-8.1l17.1-39.2c1.3-3 4.1-5 7.4-5.2l31.7-2c1.8-.1 3.6-.8 5-2l23.3-19.4c4.4-3.6 11-2.1 13.4 3L633 517.1c.3.8.6 1.6.7 2.4l9.9 70.6c.2 1.6.9 3.1 2 4.4l160.1 188c4.6 5.6.6 14.2-6.8 14.2z"/><path id="XMLID_3_" class="st0" d="M0-960h960V0H0z"/><path id="XMLID_8_" class="st0" d="M-960-960H0V0h-960z"/><path id="XMLID_10_" class="st0" d="M-960 0H0v960h-960z"/><path id="XMLID_11_" class="st0" d="M-960 956.4H0v960h-960z"/><path id="XMLID_21_" class="st0" d="M960-960h960V0H960z"/></svg>