<?xml version="1.0" encoding="UTF-8" standalone="no"?>
<svg
   xmlns:dc="http://purl.org/dc/elements/1.1/"
   xmlns:cc="http://creativecommons.org/ns#"
   xmlns:rdf="http://www.w3.org/1999/02/22-rdf-syntax-ns#"
   xmlns:svg="http://www.w3.org/2000/svg"
   xmlns="http://www.w3.org/2000/svg"
   xmlns:sodipodi="http://sodipodi.sourceforge.net/DTD/sodipodi-0.dtd"
   xmlns:inkscape="http://www.inkscape.org/namespaces/inkscape"
   id="svg"
   version="1.1"
   width="400"
   height="400"
   viewBox="0 0 400 400"
   style="display: block;"
   sodipodi:docname="vector.svg"
   inkscape:version="0.92.3 (2405546, 2018-03-11)">
  <metadata
     id="metadata10">
    <rdf:RDF>
      <cc:Work
         rdf:about="">
        <dc:format>image/svg+xml</dc:format>
        <dc:type
           rdf:resource="http://purl.org/dc/dcmitype/StillImage" />
      </cc:Work>
    </rdf:RDF>
  </metadata>
  <defs
     id="defs8" />
  <sodipodi:namedview
     pagecolor="#ffffff"
     bordercolor="#666666"
     borderopacity="1"
     objecttolerance="10"
     gridtolerance="10"
     guidetolerance="10"
     inkscape:pageopacity="0"
     inkscape:pageshadow="2"
     inkscape:window-width="1280"
     inkscape:window-height="955"
     id="namedview6"
     showgrid="false"
     inkscape:zoom="1.18"
     inkscape:cx="353.93049"
     inkscape:cy="159.46385"
     inkscape:window-x="0"
     inkscape:window-y="0"
     inkscape:window-maximized="1"
     inkscape:current-layer="svgg" />
  <g
     id="svgg"
     transform="translate(-104.86753,-7.7901595)">
    <path
       id="path0"
       d="m 261.18171,11.799517 c -14.17065,3.253136 -27.78923,12.212298 -35.87082,23.597375 -1.18688,1.670627 -2.46727,2.24069 -7.52771,3.352043 -39.37751,8.646275 -59.11392,46.869275 -41.9401,81.220505 6.15021,12.29861 15.22446,20.51328 31.88757,28.86281 22.29001,11.17108 28.86462,18.80669 32.34614,37.56123 1.23903,6.6825 0.22478,6.3732 20.18958,6.152 l 17.46875,-0.19242 2.78018,-6.70048 c 9.70366,-23.38338 21.56529,-29.55697 46.62289,-24.26455 16.68469,3.52468 20.47372,4.05158 29.13256,4.05158 41.68654,-0.004 75.34004,-31.51532 77.80372,-72.852963 3.65596,-61.354632 -63.58451,-102.2732935 -116.8989,-71.13562 -6.17718,3.607402 -6.46491,3.610999 -11.10814,0.140268 -11.87421,-8.872844 -30.85174,-13.0143431 -44.88572,-9.791778 m 20.93588,33.811773 c 10.69453,2.264068 19.22929,8.265016 24.44258,17.17922 3.397,5.80853 2.67768,5.849891 9.20014,-0.525105 41.45096,-40.521254 105.67027,-2.26227 79.46355,47.342205 -10.45535,19.78675 -29.99754,26.05744 -60.53278,19.42349 -30.41296,-6.60697 -46.03125,-3.04093 -63.53596,14.51233 -8.56354,8.58872 -8.42687,8.53836 -11.26639,4.03001 -6.45592,-10.24675 -17.45436,-18.94516 -34.31528,-27.13824 -15.42588,-7.49532 -19.50443,-11.3383 -21.8818,-20.62116 -5.1971,-20.2795 18.483,-39.154523 37.32925,-29.752977 3.09488,1.542946 4.02461,1.361317 4.53173,-0.89196 2.0177,-8.951969 3.6128,-12.073829 8.45204,-16.535427 7.436,-6.853345 17.29071,-9.315244 28.11292,-7.022386 m -1.78392,166.89899 c -11.70158,5.91823 -27.2857,6.03512 -38.92973,0.29312 -2.59856,-1.28039 -5.23847,-2.13099 -5.86968,-1.89002 -1.38109,0.5305 -130.66673,194.25485 -130.66673,195.796 0,0.9585 22.21628,1.08078 197.09437,1.08078 162.20363,0 197.09437,-0.16724 197.09437,-0.94411 0,-1.1725 -0.51252,-1.91879 -43.86069,-63.79492 -19.54039,-27.89173 -37.00555,-52.82884 -38.81284,-55.41481 -24.59544,-35.19825 -29.66307,-42.33752 -30.59998,-43.11619 -1.46562,-1.21565 -2.15617,-0.59344 -7.40003,6.68431 -2.33421,3.23875 -9.6659,13.41356 -16.29266,22.6119 -6.62676,9.19834 -12.48744,16.72425 -13.02154,16.72425 -1.24982,0 -0.90634,0.42979 -34.13545,-42.79969 -15.50859,-20.177 -28.57508,-36.89585 -29.03725,-37.15301 -0.46036,-0.25716 -2.96361,0.60783 -5.56216,1.92239 m -3.80342,83.06557 c 6.92888,6.72566 13.09527,12.22848 13.7013,12.22848 0.60603,0 4.63963,-3.0751 8.96276,-6.83356 4.32492,-3.75846 8.11216,-6.83357 8.41787,-6.83357 1.03582,0 4.22242,3.92391 21.32791,26.25527 19.17714,25.03962 20.33885,26.41712 21.62464,25.69061 0.49813,-0.28234 7.40902,-9.57778 15.35573,-20.65535 17.87517,-24.91553 17.51191,-24.45517 18.83367,-23.94804 1.43325,0.55028 49.73216,69.53331 50.13498,71.60316 l 0.3147,1.61847 H 301.30372 c -114.22482,0 -133.95763,-0.14746 -134.28672,-1.00885 -0.49274,-1.28219 51.15102,-78.83595 52.49615,-78.83595 0.54309,0 4.62705,2.91326 9.07785,6.47391 9.79538,7.83702 8.52218,7.82263 15.84848,0.17983 3.31787,-3.46174 8.5977,-8.96456 11.73035,-12.22849 3.13265,-3.26392 6.161,-5.93441 6.72926,-5.93441 0.56647,0 6.70229,5.50282 13.63116,12.22849"
       inkscape:connector-curvature="0"
       style="fill:#070707;fill-rule:evenodd;stroke:none;stroke-width:1.79830635"
       sodipodi:nodetypes="ccccccccccccccccsccccccccccccccsssccccssccccscsccccccscsccssc" />
  </g>
</svg>
