<?xml version="1.0" encoding="UTF-8" standalone="no"?>
<!-- Created with Inkscape (http://www.inkscape.org/) -->

<svg
   xmlns:dc="http://purl.org/dc/elements/1.1/"
   xmlns:cc="http://creativecommons.org/ns#"
   xmlns:rdf="http://www.w3.org/1999/02/22-rdf-syntax-ns#"
   xmlns:svg="http://www.w3.org/2000/svg"
   xmlns="http://www.w3.org/2000/svg"
   xmlns:sodipodi="http://sodipodi.sourceforge.net/DTD/sodipodi-0.dtd"
   xmlns:inkscape="http://www.inkscape.org/namespaces/inkscape"
   width="200mm"
   height="200mm"
   viewBox="0 0 708.66142 708.66142"
   id="svg3336"
   version="1.1"
   inkscape:version="0.91 r13725"
   sodipodi:docname="wulkanowy.svg"
   inkscape:export-filename="/home/mklj/dev/resources/wulkanowy/wulkanowy.svg.png"
   inkscape:export-xdpi="90"
   inkscape:export-ydpi="90">
  <defs
     id="defs3338">
    <inkscape:perspective
       sodipodi:type="inkscape:persp3d"
       inkscape:vp_x="0 : 354.33071 : 1"
       inkscape:vp_y="0 : 1000 : 0"
       inkscape:vp_z="708.66142 : 354.33071 : 1"
       inkscape:persp3d-origin="354.33071 : 236.22047 : 1"
       id="perspective3396" />
  </defs>
  <sodipodi:namedview
     id="base"
     pagecolor="#ffffff"
     bordercolor="#666666"
     borderopacity="1.0"
     inkscape:pageopacity="0.0"
     inkscape:pageshadow="2"
     inkscape:zoom="2.0577912"
     inkscape:cx="230.71461"
     inkscape:cy="285.72721"
     inkscape:document-units="px"
     inkscape:current-layer="layer1"
     showgrid="false"
     showguides="true"
     inkscape:guide-bbox="true"
     inkscape:window-width="1280"
     inkscape:window-height="955"
     inkscape:window-x="0"
     inkscape:window-y="0"
     inkscape:window-maximized="1" />
  <metadata
     id="metadata3341">
    <rdf:RDF>
      <cc:Work
         rdf:about="">
        <dc:format>image/svg+xml</dc:format>
        <dc:type
           rdf:resource="http://purl.org/dc/dcmitype/StillImage" />
        <dc:title />
      </cc:Work>
    </rdf:RDF>
  </metadata>
  <g
     inkscape:label="Layer 1"
     inkscape:groupmode="layer"
     id="layer1"
     transform="translate(0,-343.70079)">
    <path
       style="fill:#713916;fill-opacity:1"
       d="M 0.46432946,1050.3149 C 0.710354,1050.0628 23.679391,1031.9311 51.621051,1009.916 l 50.803019,-40.0274 32.77006,-59.10308 32.77008,-59.10307 50.06636,-38.58231 c 27.53649,-21.22024 50.53871,-39.03597 51.11601,-39.59044 0.57731,-0.5545 6.30331,-14.89555 12.72443,-31.869 6.42115,-16.97345 11.86228,-31.05435 12.0914,-31.29087 0.22913,-0.23652 8.48744,2.43656 18.35181,5.94021 19.32471,6.86376 17.91592,6.12261 28.07876,14.77147 l 2.01892,1.71816 5.41504,34.22382 5.41505,34.22384 -1.84002,45.22306 -1.84003,45.22307 13.87717,43.07974 c 7.63244,23.69386 13.87445,43.62976 13.87113,44.30198 -0.003,0.67221 -2.63828,10.24547 -5.85551,21.27392 -5.43576,18.6335 -6.01288,20.2361 -8.15962,22.6586 -1.27058,1.4338 -7.37084,8.3142 -13.6156,15.2364 l -11.1584,12.3689 c -124.90309,-0.2642 -243.499446,-0.091 -338.05678054,-0.2781 z"
       id="path4356"
       inkscape:connector-curvature="0"
       sodipodi:nodetypes="cscccscscsscccccscssscc" />
    <path
       style="fill:#713916;fill-opacity:1"
       d="m 495.30707,1012.8188 -19.06084,-38.04136 -24.386,-28.83349 -24.38602,-28.83352 -5.02107,-13.94387 c -2.76158,-7.66915 -6.44013,-17.91578 -8.17455,-22.77032 -3.04066,-8.51075 -3.78864,-9.86754 -20.91294,-37.93609 l -17.75949,-29.10969 -3.90329,-26.22997 -3.90332,-26.22997 2.92855,-18.0276 c 1.61071,-9.9152 3.06759,-18.66281 3.2375,-19.43913 0.25609,-1.16997 5.53578,-4.02532 30.85592,-16.68737 16.80082,-8.40173 30.62178,-15.1915 30.71322,-15.08835 0.16615,0.18746 3.40341,87.69155 3.37906,91.33856 -0.0119,1.91397 0.1694,2.02759 22.44523,14.0049 12.35198,6.64143 22.64275,12.35425 22.86839,12.6952 0.22562,0.34093 10.67554,25.77069 23.222,56.51059 l 22.81177,55.89068 42.77739,49.55849 42.77737,49.55851 4.99413,5.7841 31.51064,13.0319 57.11302,12.8287 -57.83795,-1.9896 -68.61403,0 -68.84085,-0.2647 -18.83397,-37.7766 z"
       id="path4358"
       inkscape:connector-curvature="0"
       sodipodi:nodetypes="ccccssscccscsccsssccccccccccc" />
    <path
       style="fill:#ee2819;fill-opacity:1"
       d="m 379.09415,1050.2563 -40.57029,0.3288 6.13743,-8.1896 c 2.54425,-3.395 7.40814,-8.159 10.46214,-11.5201 3.05398,-3.3611 7.07418,-7.9412 7.85035,-9.1308 1.58094,-2.423 5.09311,-8.2078 10.12357,-29.46237 l 3.1325,-13.23534 -12.48986,-43.11145 -14.16808,-44.23437 1.85901,-45.57827 1.80555,-44.93661 -5.44311,-34.57373 -5.38966,-33.77169 c -8.21284,-6.60707 -23.86959,-14.2268 -29.80301,-16.36462 -7.22633,-2.60258 -18.11642,-5.85361 -18.62058,-6.13797 5.32283,-3.40402 27.37467,-4.31632 32.82127,-5.04432 34.44757,-4.60886 108.2444,-13.68973 108.74951,-13.64908 -3.51507,3.65438 -17.85472,8.50871 -33.04467,16.46731 l -27.62551,14.4741 -2.92695,18.38983 c -1.98731,12.48616 -3.0455,19.66853 -3.00555,20.67685 0.04,1.00833 0.97059,12.36102 3.07699,26.53722 l 3.76055,25.30886 17.44306,28.56908 18.89755,30.90031 7.33653,21.87844 8.1462,22.20845 24.26259,28.73506 24.47648,28.94896 19.09551,38.35345 18.71408,37.5027 -50.65883,0.1193 c -26.46909,0.062 -64.45116,-0.2863 -84.40473,-0.4583 z"
       id="path4360"
       inkscape:connector-curvature="0"
       sodipodi:nodetypes="ccsssscccccccccccscscscccccccccscc" />
    <path
       style="fill:#512a0d;fill-opacity:1"
       d="m 591.54761,1023.0445 c -1.3715,-1.7412 -16.0703,-20.6517 -32.66402,-42.02339 L 528.7132,942.16357 508.60735,900.4643 488.50149,858.76502 480.75057,833.72278 c -4.26299,-13.77324 -7.79256,-25.07654 -7.84346,-25.11847 -0.0508,-0.042 -9.62073,-4.10772 -21.26629,-9.03511 -11.64554,-4.92741 -21.21402,-8.99376 -21.26327,-9.03631 -0.0493,-0.0426 -1.37278,-7.75039 -2.94115,-17.12848 -2.25918,-13.50885 -3.47491,-22.72617 -5.85205,-44.36902 -1.65024,-15.0249 -3.00045,-27.67285 -3.00045,-28.10662 0,-0.59357 1.81686,-1.68838 7.91504,-4.69068 4.4562,-2.19389 8.87034,-4.6079 9.02358,-4.60192 0.15313,0.004 0.36557,3.55103 0.52058,7.1754 0.22432,5.24593 2.89397,81.91013 2.8948,84.59871 3.1e-4,0.94737 3.42954,3.53025 21.12918,13.12102 8.19942,4.44296 16.94979,9.23283 19.44525,10.64416 l 4.53722,2.56603 1.65586,3.98621 c 0.91071,2.19241 9.92998,24.20929 20.0428,48.92636 10.11282,24.71709 19.7709,48.28685 21.4624,52.37728 l 3.07544,7.43711 42.69046,49.43967 43.39757,48.73258 5.15664,5.44 c 21.92325,9.7977 67.58113,21.7605 75.65234,24.0375 l -76.44859,-10.031 -29.18689,-17.0428 z"
       id="path4366"
       inkscape:connector-curvature="0"
       sodipodi:nodetypes="cscccscscsssscscsscssscccccccc" />
    <g
       transform="matrix(-2.5287407,-1.4392892,1.4392892,-2.5287407,318.28977,3336.4047)"
       id="layer1-6"
       inkscape:label="Layer 1">
      <g
         id="g6068">
        <path
           inkscape:connector-curvature="0"
           style="display:inline;fill:#773b1d;fill-opacity:1"
           d="m 492.09422,763.00037 c 0.45647,0 0.899,0.035 1.35353,0.08 1.81659,0.1637 3.90792,0.8807 5.25486,2.6673 2.00624,2.6687 1.36316,5.8085 0.31848,8.3998 -1.04622,2.5786 -2.78078,5.2649 -5.09562,8.2804 -4.6312,6.0182 -11.66973,13.2366 -20.4621,21.0194 l -1.19429,1.035 -1.59238,-0.04 c -9.12835,-0.4537 -18.48373,2.5993 -25.4383,8.7183 l 0,0.04 -0.0796,0.08 c -5.81306,4.7441 -9.47303,11.3332 -11.02724,18.591 l -0.35829,1.5924 -1.35352,0.8758 c -9.93458,6.3075 -18.82467,11.0701 -25.91602,13.8537 -3.53905,1.3936 -6.61967,2.3394 -9.39505,2.6275 -2.77601,0.2829 -5.98176,0.01 -8.00172,-2.6673 -1.34756,-1.7916 -1.44894,-3.9863 -1.11466,-5.7724 0.34645,-1.7913 1.10836,-3.5082 2.1099,-5.2946 2.00309,-3.573 5.16914,-7.5816 9.31543,-12.1021 8.29261,-9.0412 20.51459,-19.9282 34.95278,-30.7728 14.42402,-10.8558 28.2756,-19.5965 39.25221,-25.0402 5.49464,-2.7226 10.23198,-4.6394 14.212,-5.5734 1.50731,-0.3472 2.89024,-0.5843 4.25962,-0.5971 z"
           id="path4935-8" />
        <path
           inkscape:connector-curvature="0"
           style="display:inline;fill:#ffffff;fill-opacity:1"
           d="m 475.89175,781.98957 c -1.6639,0.075 -3.85618,1.0058 -5.852,2.6274 -3.19334,2.5946 -4.72092,6.0069 -3.42362,7.6036 1.29729,1.5967 4.92781,0.7634 8.12114,-1.8312 3.19334,-2.5946 4.72092,-5.9672 3.42362,-7.5638 -0.48649,-0.5988 -1.27079,-0.8812 -2.26914,-0.836 z"
           id="path4933-9" />
        <path
           inkscape:connector-curvature="0"
           style="display:inline;fill:#5a2d0e;fill-opacity:1"
           d="m 468.04927,806.59187 c 4.19915,0 8.4823,0.8052 12.57981,2.5478 16.37756,6.9728 24.05417,26.0629 17.07829,42.4369 -2.39414,5.6303 -6.21713,10.2469 -10.868,13.5751 -8.88842,6.3623 -20.78277,8.0744 -31.52915,3.5032 -16.37773,-6.9741 -24.05342,-26.0167 -17.0783,-42.3971 5.23191,-12.2806 17.21992,-19.6728 29.81735,-19.6659 z"
           id="path4931-9" />
        <path
           inkscape:connector-curvature="0"
           style="display:inline;fill:#ffffff;fill-opacity:1"
           d="m 468.00952,815.78787 c -8.9995,-0.031 -17.53439,5.246 -21.2981,14.0925 -5.01891,11.7904 0.39292,25.2786 12.18172,30.2951 7.7416,3.2919 16.24823,2.0866 22.572,-2.4682 3.32776,-2.3907 6.04886,-5.7036 7.76286,-9.7533 5.01891,-11.7904 -0.41962,-25.2763 -12.22152,-30.2951 -2.94715,-1.2538 -5.99713,-1.8606 -8.99696,-1.871 z"
           id="path4929-4" />
        <path
           inkscape:connector-curvature="0"
           style="display:inline;fill:#ffffff;fill-opacity:1"
           d="m 420.91483,824.10807 c -1.6639,0.075 -3.81636,1.0058 -5.81219,2.6274 -3.19334,2.5946 -4.76073,5.9671 -3.46343,7.5638 1.29729,1.5967 4.96762,0.8032 8.16096,-1.7914 3.19333,-2.5946 4.72091,-6.007 3.42362,-7.6037 -0.4865,-0.5987 -1.31061,-0.8413 -2.30896,-0.7961 z"
           id="path9-0" />
      </g>
      <g
         id="g6111"
         transform="translate(37.287403,19.719885)"
         style="display:inline" />
    </g>
    <path
       style="fill:#a1887f;fill-opacity:0"
       d="m 2.9982005,705.21565 c 0.5225,-0.47174 18.2749995,-14.4914 39.4499995,-31.1548 21.175,-16.6634 43.433699,-34.2193 49.463775,-39.01311 l 10.963775,-8.71601 32.6451,-58.87918 32.64511,-58.87919 50.5638,-39 c 45.81084,-35.33402 50.75105,-39.42299 52.55571,-43.5 1.09554,-2.475 6.55911,-16.425 12.14126,-31 5.58215,-14.575 10.46728,-26.82419 10.85584,-27.22042 0.97913,-0.99846 21.08777,6.13208 30.05771,10.65848 4.06565,2.05161 9.69929,5.26209 12.5192,7.1344 l 5.12712,3.40421 5.37479,34.21662 5.37479,34.21662 -1.77914,45.54504 -1.77915,45.54505 8.06911,25 c 9.49576,29.4201 18.2012,59.19381 18.2012,62.25043 0,3.51068 -6.60459,28.24099 -9.41914,35.26917 -2.03376,5.07846 -4.74031,8.82235 -12.51089,17.30596 -5.45364,5.95405 -10.96292,12.36348 -12.24284,14.24316 l -2.32713,3.41761 -168.45,0.007 C 76.757362,706.07033 2.4695344,705.69296 2.9982005,705.21565 Z"
       id="path4399"
       inkscape:connector-curvature="0"
       transform="translate(0,343.70079)" />
    <path
       style="fill:#a1887f;fill-opacity:0"
       d="m 2.800152,705.48808 c 0.3219067,-0.32191 22.955226,-18.23094 50.296265,-39.79786 l 49.710983,-39.21256 32.68251,-58.95215 32.68251,-58.95215 18.07077,-14 c 9.93892,-7.7 32.45787,-25.12485 50.04211,-38.72188 17.58423,-13.59703 32.48817,-25.34462 33.11985,-26.10575 0.63169,-0.76114 6.32647,-14.77352 12.65507,-31.13864 6.3286,-16.36511 11.73364,-30.1222 12.0112,-30.5713 0.80311,-1.29946 22.37524,6.37449 32.23653,11.46765 4.94688,2.55496 10.57957,6.09091 12.51709,7.85766 l 3.52276,3.21226 5.20574,33.37877 5.20574,33.37877 -1.77214,45.62123 -1.77215,45.62123 7.58782,23.5 c 8.62472,26.71135 18.74539,60.95226 18.74539,63.42061 0,3.01101 -6.15618,26.88633 -8.707,33.76805 -1.80867,4.87953 -4.28526,8.78482 -8.90107,14.03595 -3.51734,4.00146 -9.35982,10.76289 -12.98329,15.02539 l -6.58811,7.75 -168.07693,0 c -92.442314,0 -167.8135546,-0.26338 -167.491648,-0.58528 z"
       id="path4401"
       inkscape:connector-curvature="0"
       transform="translate(0,343.70079)" />
    <path
       style="fill:#a1887f;fill-opacity:0"
       d="m 2.800152,705.48808 c 0.3219067,-0.32191 22.955226,-18.23094 50.296265,-39.79786 l 49.710983,-39.21256 32.68251,-58.95215 32.68251,-58.95215 18.07077,-14 c 9.93892,-7.7 32.45787,-25.12485 50.04211,-38.72188 17.58423,-13.59703 32.48817,-25.34462 33.11985,-26.10575 0.63169,-0.76114 6.32647,-14.77352 12.65507,-31.13864 6.3286,-16.36511 11.73364,-30.1222 12.0112,-30.5713 0.80311,-1.29946 22.37524,6.37449 32.23653,11.46765 4.94688,2.55496 10.57957,6.09091 12.51709,7.85766 l 3.52276,3.21226 5.20574,33.37877 5.20574,33.37877 -1.77214,45.62123 -1.77215,45.62123 7.58782,23.5 c 8.62472,26.71135 18.74539,60.95226 18.74539,63.42061 0,3.01101 -6.15618,26.88633 -8.707,33.76805 -1.80867,4.87953 -4.28526,8.78482 -8.90107,14.03595 -3.51734,4.00146 -9.35982,10.76289 -12.98329,15.02539 l -6.58811,7.75 -168.07693,0 c -92.442314,0 -167.8135546,-0.26338 -167.491648,-0.58528 z"
       id="path4403"
       inkscape:connector-curvature="0"
       transform="translate(0,343.70079)" />
    <path
       style="fill:#a1887f;fill-opacity:0"
       d="m 595.74812,707.01945 c -44.71505,-0.3921 -81.44386,-0.87788 -81.61958,-1.0795 -0.17572,-0.20163 -8.65307,-17.24159 -18.83854,-37.86659 l -18.51905,-37.5 -24.53535,-28.87001 -24.53535,-28.87001 -7.62198,-21.53161 c -4.1921,-11.84238 -8.12179,-22.47588 -8.73267,-23.62999 -0.61087,-1.15411 -8.78977,-14.69838 -18.17533,-30.09838 l -17.06466,-28 -3.23937,-22 c -1.78165,-12.1 -3.26037,-24.475 -3.28603,-27.5 -0.0755,-8.89684 4.97274,-39.24095 6.84708,-41.15675 1.74086,-1.77937 41.19898,-22.09851 41.78177,-21.51572 0.19218,0.19218 1.68681,12.2346 3.3214,26.76094 3.02115,26.84845 7.86777,60.05084 9.0434,61.95306 0.35602,0.57604 10.0286,5.02918 21.49464,9.89587 l 20.84734,8.84852 8.12808,25.85704 c 7.95778,25.3153 8.54214,26.71496 27.89125,66.80467 l 19.76317,40.94764 31.46019,40.45946 31.46019,40.45946 14.56672,8.4846 14.56671,8.48459 33.14802,4.3311 c 18.23142,2.3821 34.94803,4.5713 37.14803,4.86488 10.57239,1.41087 9.74555,2.34694 -2,2.2642 -6.6,-0.0465 -48.58504,-0.40536 -93.30008,-0.79747 z"
       id="path4405"
       inkscape:connector-curvature="0"
       transform="translate(0,343.70079)" />
    <path
       style="fill:#a1887f;fill-opacity:0"
       d="m 343.25268,701.21059 c 2.08753,-2.67452 7.70447,-9.2103 12.48208,-14.52396 10.0509,-11.17864 12.50833,-16.47813 17.70214,-38.17512 l 3.12673,-13.06185 -7.98964,-27.43815 c -4.39431,-15.09098 -10.36042,-34.74845 -13.25804,-43.68327 l -5.2684,-16.24512 1.80333,-45.75488 1.80333,-45.75488 -5.40577,-33.72048 c -4.97135,-31.01068 -5.5984,-33.8799 -7.803,-35.70431 -4.4306,-3.66654 -25.92704,-14.22682 -35.70626,-17.54096 -9.12825,-3.09353 -9.48775,-3.31799 -6.19098,-3.86565 1.925,-0.31978 7.775,-0.84549 13,-1.16826 25.11933,-1.5517 64.21618,-6.42449 96.87564,-12.07398 11.20659,-1.93854 20.97406,-3.39001 21.70546,-3.22549 0.73141,0.16452 -11.43724,6.77662 -27.04143,14.69355 -26.84202,13.61854 -28.40184,14.56182 -28.93822,17.5 -0.31182,1.70807 -1.69947,10.61313 -3.08365,19.78903 -2.81436,18.65661 -2.75422,20.34686 1.8479,51.93657 l 2.42128,16.62001 8.74601,14.37999 c 4.81031,7.90899 12.96436,21.22644 18.12012,29.59434 9.42159,15.29144 11.50598,20.24444 23.5936,56.06416 0.6085,1.80318 12.30882,16.55252 26.00071,32.7763 l 24.89436,29.49779 17.92911,36.59207 c 9.86101,20.12564 17.92911,36.7638 17.92911,36.9737 0,0.20989 -38.94549,0.38162 -86.54552,0.38162 l -86.54553,0 3.79553,-4.86277 z"
       id="path4407"
       inkscape:connector-curvature="0"
       transform="translate(0,343.70079)" />
    <path
       style="fill:#a1887f;fill-opacity:0"
       d="m 343.25268,701.21059 c 2.08753,-2.67452 7.70447,-9.2103 12.48208,-14.52396 10.0509,-11.17864 12.50833,-16.47813 17.70214,-38.17512 l 3.12673,-13.06185 -7.98964,-27.43815 c -4.39431,-15.09098 -10.36042,-34.74845 -13.25804,-43.68327 l -5.2684,-16.24512 1.80333,-45.75488 1.80333,-45.75488 -5.40577,-33.72048 c -4.97135,-31.01068 -5.5984,-33.8799 -7.803,-35.70431 -4.4306,-3.66654 -25.92704,-14.22682 -35.70626,-17.54096 -9.12825,-3.09353 -9.48775,-3.31799 -6.19098,-3.86565 1.925,-0.31978 7.775,-0.84549 13,-1.16826 25.11933,-1.5517 64.21618,-6.42449 96.87564,-12.07398 11.20659,-1.93854 20.97406,-3.39001 21.70546,-3.22549 0.73141,0.16452 -11.43724,6.77662 -27.04143,14.69355 -26.84202,13.61854 -28.40184,14.56182 -28.93822,17.5 -0.31182,1.70807 -1.69947,10.61313 -3.08365,19.78903 -2.81436,18.65661 -2.75422,20.34686 1.8479,51.93657 l 2.42128,16.62001 8.74601,14.37999 c 4.81031,7.90899 12.96436,21.22644 18.12012,29.59434 9.42159,15.29144 11.50598,20.24444 23.5936,56.06416 0.6085,1.80318 12.30882,16.55252 26.00071,32.7763 l 24.89436,29.49779 17.92911,36.59207 c 9.86101,20.12564 17.92911,36.7638 17.92911,36.9737 0,0.20989 -38.94549,0.38162 -86.54552,0.38162 l -86.54553,0 3.79553,-4.86277 z"
       id="path4409"
       inkscape:connector-curvature="0"
       transform="translate(0,343.70079)" />
    <path
       style="fill:#a1887f;fill-opacity:0"
       d="m 343.25268,701.21059 c 2.08753,-2.67452 7.70447,-9.2103 12.48208,-14.52396 10.0509,-11.17864 12.50833,-16.47813 17.70214,-38.17512 l 3.12673,-13.06185 -7.98964,-27.43815 c -4.39431,-15.09098 -10.36042,-34.74845 -13.25804,-43.68327 l -5.2684,-16.24512 1.80333,-45.75488 1.80333,-45.75488 -5.40577,-33.72048 c -4.97135,-31.01068 -5.5984,-33.8799 -7.803,-35.70431 -4.4306,-3.66654 -25.92704,-14.22682 -35.70626,-17.54096 -9.12825,-3.09353 -9.48775,-3.31799 -6.19098,-3.86565 1.925,-0.31978 7.775,-0.84549 13,-1.16826 25.11933,-1.5517 64.21618,-6.42449 96.87564,-12.07398 11.20659,-1.93854 20.97406,-3.39001 21.70546,-3.22549 0.73141,0.16452 -11.43724,6.77662 -27.04143,14.69355 -26.84202,13.61854 -28.40184,14.56182 -28.93822,17.5 -0.31182,1.70807 -1.69947,10.61313 -3.08365,19.78903 -2.81436,18.65661 -2.75422,20.34686 1.8479,51.93657 l 2.42128,16.62001 8.74601,14.37999 c 4.81031,7.90899 12.96436,21.22644 18.12012,29.59434 9.42159,15.29144 11.50598,20.24444 23.5936,56.06416 0.6085,1.80318 12.30882,16.55252 26.00071,32.7763 l 24.89436,29.49779 17.92911,36.59207 c 9.86101,20.12564 17.92911,36.7638 17.92911,36.9737 0,0.20989 -38.94549,0.38162 -86.54552,0.38162 l -86.54553,0 3.79553,-4.86277 z"
       id="path4411"
       inkscape:connector-curvature="0"
       transform="translate(0,343.70079)" />
    <path
       style="fill:#a1887f;fill-opacity:0"
       d="m 343.25268,701.21059 c 2.08753,-2.67452 7.70447,-9.2103 12.48208,-14.52396 10.0509,-11.17864 12.50833,-16.47813 17.70214,-38.17512 l 3.12673,-13.06185 -7.98964,-27.43815 c -4.39431,-15.09098 -10.36042,-34.74845 -13.25804,-43.68327 l -5.2684,-16.24512 1.80333,-45.75488 1.80333,-45.75488 -5.40577,-33.72048 c -4.97135,-31.01068 -5.5984,-33.8799 -7.803,-35.70431 -4.4306,-3.66654 -25.92704,-14.22682 -35.70626,-17.54096 -9.12825,-3.09353 -9.48775,-3.31799 -6.19098,-3.86565 1.925,-0.31978 7.775,-0.84549 13,-1.16826 25.11933,-1.5517 64.21618,-6.42449 96.87564,-12.07398 11.20659,-1.93854 20.97406,-3.39001 21.70546,-3.22549 0.73141,0.16452 -11.43724,6.77662 -27.04143,14.69355 -26.84202,13.61854 -28.40184,14.56182 -28.93822,17.5 -0.31182,1.70807 -1.69947,10.61313 -3.08365,19.78903 -2.81436,18.65661 -2.75422,20.34686 1.8479,51.93657 l 2.42128,16.62001 8.74601,14.37999 c 4.81031,7.90899 12.96436,21.22644 18.12012,29.59434 9.42159,15.29144 11.50598,20.24444 23.5936,56.06416 0.6085,1.80318 12.30882,16.55252 26.00071,32.7763 l 24.89436,29.49779 17.92911,36.59207 c 9.86101,20.12564 17.92911,36.7638 17.92911,36.9737 0,0.20989 -38.94549,0.38162 -86.54552,0.38162 l -86.54553,0 3.79553,-4.86277 z"
       id="path4413"
       inkscape:connector-curvature="0"
       transform="translate(0,343.70079)" />
    <path
       style="fill:#a1887f;fill-opacity:0"
       d="m 343.25268,701.21059 c 2.08753,-2.67452 7.70447,-9.2103 12.48208,-14.52396 10.0509,-11.17864 12.50833,-16.47813 17.70214,-38.17512 l 3.12673,-13.06185 -7.98964,-27.43815 c -4.39431,-15.09098 -10.36042,-34.74845 -13.25804,-43.68327 l -5.2684,-16.24512 1.80333,-45.75488 1.80333,-45.75488 -5.40577,-33.72048 c -4.97135,-31.01068 -5.5984,-33.8799 -7.803,-35.70431 -4.4306,-3.66654 -25.92704,-14.22682 -35.70626,-17.54096 -9.12825,-3.09353 -9.48775,-3.31799 -6.19098,-3.86565 1.925,-0.31978 7.775,-0.84549 13,-1.16826 25.11933,-1.5517 64.21618,-6.42449 96.87564,-12.07398 11.20659,-1.93854 20.97406,-3.39001 21.70546,-3.22549 0.73141,0.16452 -11.43724,6.77662 -27.04143,14.69355 -26.84202,13.61854 -28.40184,14.56182 -28.93822,17.5 -0.31182,1.70807 -1.69947,10.61313 -3.08365,19.78903 -2.81436,18.65661 -2.75422,20.34686 1.8479,51.93657 l 2.42128,16.62001 8.74601,14.37999 c 4.81031,7.90899 12.96436,21.22644 18.12012,29.59434 9.42159,15.29144 11.50598,20.24444 23.5936,56.06416 0.6085,1.80318 12.30882,16.55252 26.00071,32.7763 l 24.89436,29.49779 17.92911,36.59207 c 9.86101,20.12564 17.92911,36.7638 17.92911,36.9737 0,0.20989 -38.94549,0.38162 -86.54552,0.38162 l -86.54553,0 3.79553,-4.86277 z"
       id="path4415"
       inkscape:connector-curvature="0"
       transform="translate(0,343.70079)" />
    <path
       style="fill:#a1887f;fill-opacity:0"
       d="m 16.756939,694.34568 c 8.522493,-6.7375 31.265632,-24.625 50.540309,-39.75 l 35.044872,-27.5 33.08054,-59.5 33.08055,-59.5 50.51672,-38.9603 50.51673,-38.9603 2.91387,-7.0397 c 1.60262,-3.87184 7.06187,-17.8397 12.13164,-31.0397 5.06978,-13.2 9.40172,-24.20309 9.62654,-24.4513 0.92409,-1.02027 21.56833,6.6158 31.39417,11.61235 17.70682,9.00413 15.83642,5.20842 21.93287,44.5095 l 5.22303,33.67054 -1.7913,45.34782 -1.7913,45.34781 8.13051,25.48164 c 4.47179,14.0149 10.46783,33.53569 13.32454,43.37952 l 5.19402,17.89788 -1.73438,8.07102 c -2.47043,11.49628 -6.27675,24.31296 -8.94903,30.13322 -1.2826,2.79354 -6.66642,9.85421 -12.20011,16 -5.44745,6.05 -10.94513,12.4625 -12.21708,14.25 l -2.31264,3.25 -168.57526,0 -168.5752524,0 15.4954414,-12.25 z"
       id="path4439"
       inkscape:connector-curvature="0"
       transform="translate(0,343.70079)" />
    <path
       style="fill:#a1887f;fill-opacity:0"
       d="m 16.756939,694.34568 c 8.522493,-6.7375 31.265632,-24.625 50.540309,-39.75 l 35.044872,-27.5 33.08054,-59.5 33.08055,-59.5 50.51672,-38.9603 50.51673,-38.9603 2.91387,-7.0397 c 1.60262,-3.87184 7.06187,-17.8397 12.13164,-31.0397 5.06978,-13.2 9.40172,-24.20309 9.62654,-24.4513 0.92409,-1.02027 21.56833,6.6158 31.39417,11.61235 17.70682,9.00413 15.83642,5.20842 21.93287,44.5095 l 5.22303,33.67054 -1.7913,45.34782 -1.7913,45.34781 8.13051,25.48164 c 4.47179,14.0149 10.46783,33.53569 13.32454,43.37952 l 5.19402,17.89788 -1.73438,8.07102 c -2.47043,11.49628 -6.27675,24.31296 -8.94903,30.13322 -1.2826,2.79354 -6.66642,9.85421 -12.20011,16 -5.44745,6.05 -10.94513,12.4625 -12.21708,14.25 l -2.31264,3.25 -168.57526,0 -168.5752524,0 15.4954414,-12.25 z"
       id="path4441"
       inkscape:connector-curvature="0"
       transform="translate(0,343.70079)" />
    <path
       style="fill:#f3ffda;fill-opacity:0"
       d="m 16.756939,694.34568 c 8.522493,-6.7375 31.265632,-24.625 50.540309,-39.75 l 35.044872,-27.5 33.08054,-59.5 33.08055,-59.5 50.51672,-38.9603 50.51673,-38.9603 2.91387,-7.0397 c 1.60262,-3.87184 7.06187,-17.8397 12.13164,-31.0397 5.06978,-13.2 9.40172,-24.20309 9.62654,-24.4513 0.92409,-1.02027 21.56833,6.6158 31.39417,11.61235 17.70682,9.00413 15.83642,5.20842 21.93287,44.5095 l 5.22303,33.67054 -1.7913,45.34782 -1.7913,45.34781 8.13051,25.48164 c 4.47179,14.0149 10.46783,33.53569 13.32454,43.37952 l 5.19402,17.89788 -1.73438,8.07102 c -2.47043,11.49628 -6.27675,24.31296 -8.94903,30.13322 -1.2826,2.79354 -6.66642,9.85421 -12.20011,16 -5.44745,6.05 -10.94513,12.4625 -12.21708,14.25 l -2.31264,3.25 -168.57526,0 -168.5752524,0 15.4954414,-12.25 z"
       id="path4443"
       inkscape:connector-curvature="0"
       transform="translate(0,343.70079)" />
    <path
       style="fill:#f3ffda;fill-opacity:0"
       d="m 342.40977,702.33102 c 1.61561,-2.32944 6.85006,-8.51034 11.63211,-13.73534 11.7045,-12.78868 14.41059,-18.52311 19.96873,-42.31539 l 2.52659,-10.81539 -6.96832,-24.18461 c -3.83258,-13.30153 -9.79349,-32.96779 -13.24647,-43.70278 l -6.27814,-19.51817 1.82228,-44.98183 1.82229,-44.98183 -5.28591,-34 c -5.02691,-32.33406 -5.41724,-34.12514 -7.96617,-36.55392 -3.94525,-3.75928 -25.06047,-14.30138 -35.13856,-17.54347 -8.6932,-2.79658 -10.9914,-4.40261 -6.30003,-4.40261 5.59325,0 39.46395,-3.2118 58.55003,-5.55203 16.33556,-2.00297 48.44844,-6.88958 72.5,-11.0323 1.65,-0.2842 -9.825,6.05492 -25.5,14.08694 -15.675,8.03201 -28.83392,14.93617 -29.24205,15.34257 -0.40813,0.4064 -2.11927,9.45651 -3.80255,20.11134 l -3.0605,19.37243 1.56957,13.58552 c 2.29032,19.82402 5.20455,37.59858 6.58846,40.18443 1.72719,3.2273 30.86726,50.90622 32.94289,53.9011 0.95296,1.375 4.01164,9.25 6.79709,17.5 10.54835,31.24242 8.40347,27.63302 35.32436,59.44383 l 24.07148,28.44382 18.90992,37.80964 18.90993,37.80964 -87.04226,-0.0181 -87.04225,-0.0181 2.93748,-4.23534 0,-5e-5 z"
       id="path4445"
       inkscape:connector-curvature="0"
       transform="translate(0,343.70079)" />
    <path
       style="fill:#f3ffda;fill-opacity:0"
       d="m 16.756939,694.34568 c 8.522493,-6.7375 31.265632,-24.625 50.540309,-39.75 l 35.044872,-27.5 33.08054,-59.5 33.08055,-59.5 50.51672,-38.9603 50.51673,-38.9603 2.91387,-7.0397 c 1.60262,-3.87184 7.06187,-17.8397 12.13164,-31.0397 5.06978,-13.2 9.40172,-24.20309 9.62654,-24.4513 0.92409,-1.02027 21.56833,6.6158 31.39417,11.61235 17.70682,9.00413 15.83642,5.20842 21.93287,44.5095 l 5.22303,33.67054 -1.7913,45.34782 -1.7913,45.34781 8.13051,25.48164 c 4.47179,14.0149 10.46783,33.53569 13.32454,43.37952 l 5.19402,17.89788 -1.73438,8.07102 c -2.47043,11.49628 -6.27675,24.31296 -8.94903,30.13322 -1.2826,2.79354 -6.66642,9.85421 -12.20011,16 -5.44745,6.05 -10.94513,12.4625 -12.21708,14.25 l -2.31264,3.25 -168.57526,0 -168.5752524,0 15.4954414,-12.25 z"
       id="path4447"
       inkscape:connector-curvature="0"
       transform="translate(0,343.70079)" />
    <path
       style="fill:#f3ffda;fill-opacity:0"
       d="m 16.756939,694.34568 c 8.522493,-6.7375 31.265632,-24.625 50.540309,-39.75 l 35.044872,-27.5 33.08054,-59.5 33.08055,-59.5 50.51672,-38.9603 50.51673,-38.9603 2.91387,-7.0397 c 1.60262,-3.87184 7.06187,-17.8397 12.13164,-31.0397 5.06978,-13.2 9.40172,-24.20309 9.62654,-24.4513 0.92409,-1.02027 21.56833,6.6158 31.39417,11.61235 17.70682,9.00413 15.83642,5.20842 21.93287,44.5095 l 5.22303,33.67054 -1.7913,45.34782 -1.7913,45.34781 8.13051,25.48164 c 4.47179,14.0149 10.46783,33.53569 13.32454,43.37952 l 5.19402,17.89788 -1.73438,8.07102 c -2.47043,11.49628 -6.27675,24.31296 -8.94903,30.13322 -1.2826,2.79354 -6.66642,9.85421 -12.20011,16 -5.44745,6.05 -10.94513,12.4625 -12.21708,14.25 l -2.31264,3.25 -168.57526,0 -168.5752524,0 15.4954414,-12.25 z"
       id="path4449"
       inkscape:connector-curvature="0"
       transform="translate(0,343.70079)" />
    <path
       style="fill:#f3ffda;fill-opacity:0"
       d="m 16.756939,694.34568 c 8.522493,-6.7375 31.265632,-24.625 50.540309,-39.75 l 35.044872,-27.5 33.08054,-59.5 33.08055,-59.5 50.51672,-38.9603 50.51673,-38.9603 2.91387,-7.0397 c 1.60262,-3.87184 7.06187,-17.8397 12.13164,-31.0397 5.06978,-13.2 9.40172,-24.20309 9.62654,-24.4513 0.92409,-1.02027 21.56833,6.6158 31.39417,11.61235 17.70682,9.00413 15.83642,5.20842 21.93287,44.5095 l 5.22303,33.67054 -1.7913,45.34782 -1.7913,45.34781 8.13051,25.48164 c 4.47179,14.0149 10.46783,33.53569 13.32454,43.37952 l 5.19402,17.89788 -1.73438,8.07102 c -2.47043,11.49628 -6.27675,24.31296 -8.94903,30.13322 -1.2826,2.79354 -6.66642,9.85421 -12.20011,16 -5.44745,6.05 -10.94513,12.4625 -12.21708,14.25 l -2.31264,3.25 -168.57526,0 -168.5752524,0 15.4954414,-12.25 z"
       id="path4451"
       inkscape:connector-curvature="0"
       transform="translate(0,343.70079)" />
    <path
       style="fill:#f3ffda;fill-opacity:0"
       d="m 16.756939,694.34568 c 8.522493,-6.7375 31.265632,-24.625 50.540309,-39.75 l 35.044872,-27.5 33.08054,-59.5 33.08055,-59.5 50.51672,-38.9603 50.51673,-38.9603 2.91387,-7.0397 c 1.60262,-3.87184 7.06187,-17.8397 12.13164,-31.0397 5.06978,-13.2 9.40172,-24.20309 9.62654,-24.4513 0.92409,-1.02027 21.56833,6.6158 31.39417,11.61235 17.70682,9.00413 15.83642,5.20842 21.93287,44.5095 l 5.22303,33.67054 -1.7913,45.34782 -1.7913,45.34781 8.13051,25.48164 c 4.47179,14.0149 10.46783,33.53569 13.32454,43.37952 l 5.19402,17.89788 -1.73438,8.07102 c -2.47043,11.49628 -6.27675,24.31296 -8.94903,30.13322 -1.2826,2.79354 -6.66642,9.85421 -12.20011,16 -5.44745,6.05 -10.94513,12.4625 -12.21708,14.25 l -2.31264,3.25 -168.57526,0 -168.5752524,0 15.4954414,-12.25 z"
       id="path4453"
       inkscape:connector-curvature="0"
       transform="translate(0,343.70079)" />
    <path
       style="fill:#f3ffda;fill-opacity:0"
       d="m 16.756939,694.34568 c 8.522493,-6.7375 31.265632,-24.625 50.540309,-39.75 l 35.044872,-27.5 33.08054,-59.5 33.08055,-59.5 50.51672,-38.9603 50.51673,-38.9603 2.91387,-7.0397 c 1.60262,-3.87184 7.06187,-17.8397 12.13164,-31.0397 5.06978,-13.2 9.40172,-24.20309 9.62654,-24.4513 0.92409,-1.02027 21.56833,6.6158 31.39417,11.61235 17.70682,9.00413 15.83642,5.20842 21.93287,44.5095 l 5.22303,33.67054 -1.7913,45.34782 -1.7913,45.34781 8.13051,25.48164 c 4.47179,14.0149 10.46783,33.53569 13.32454,43.37952 l 5.19402,17.89788 -1.73438,8.07102 c -2.47043,11.49628 -6.27675,24.31296 -8.94903,30.13322 -1.2826,2.79354 -6.66642,9.85421 -12.20011,16 -5.44745,6.05 -10.94513,12.4625 -12.21708,14.25 l -2.31264,3.25 -168.57526,0 -168.5752524,0 15.4954414,-12.25 z"
       id="path4455"
       inkscape:connector-curvature="0"
       transform="translate(0,343.70079)" />
    <path
       style="fill:#f3ffda;fill-opacity:0"
       d="m 16.756939,694.34568 c 8.522493,-6.7375 31.265632,-24.625 50.540309,-39.75 l 35.044872,-27.5 33.08054,-59.5 33.08055,-59.5 50.51672,-38.9603 50.51673,-38.9603 2.91387,-7.0397 c 1.60262,-3.87184 7.06187,-17.8397 12.13164,-31.0397 5.06978,-13.2 9.40172,-24.20309 9.62654,-24.4513 0.92409,-1.02027 21.56833,6.6158 31.39417,11.61235 17.70682,9.00413 15.83642,5.20842 21.93287,44.5095 l 5.22303,33.67054 -1.7913,45.34782 -1.7913,45.34781 8.13051,25.48164 c 4.47179,14.0149 10.46783,33.53569 13.32454,43.37952 l 5.19402,17.89788 -1.73438,8.07102 c -2.47043,11.49628 -6.27675,24.31296 -8.94903,30.13322 -1.2826,2.79354 -6.66642,9.85421 -12.20011,16 -5.44745,6.05 -10.94513,12.4625 -12.21708,14.25 l -2.31264,3.25 -168.57526,0 -168.5752524,0 15.4954414,-12.25 z"
       id="path4457"
       inkscape:connector-curvature="0"
       transform="translate(0,343.70079)" />
    <path
       style="fill:#3e2723;fill-opacity:0"
       d="m 16.756939,694.34568 c 8.522493,-6.7375 31.265632,-24.625 50.540309,-39.75 l 35.044872,-27.5 33.08054,-59.5 33.08055,-59.5 50.51672,-38.9603 50.51673,-38.9603 2.91387,-7.0397 c 1.60262,-3.87184 7.06187,-17.8397 12.13164,-31.0397 5.06978,-13.2 9.40172,-24.20309 9.62654,-24.4513 0.92409,-1.02027 21.56833,6.6158 31.39417,11.61235 17.70682,9.00413 15.83642,5.20842 21.93287,44.5095 l 5.22303,33.67054 -1.7913,45.34782 -1.7913,45.34781 8.13051,25.48164 c 4.47179,14.0149 10.46783,33.53569 13.32454,43.37952 l 5.19402,17.89788 -1.73438,8.07102 c -2.47043,11.49628 -6.27675,24.31296 -8.94903,30.13322 -1.2826,2.79354 -6.66642,9.85421 -12.20011,16 -5.44745,6.05 -10.94513,12.4625 -12.21708,14.25 l -2.31264,3.25 -168.57526,0 -168.5752524,0 15.4954414,-12.25 z"
       id="path4459"
       inkscape:connector-curvature="0"
       transform="translate(0,343.70079)" />
    <path
       style="fill:#3e2723;fill-opacity:0"
       d="m 16.756939,694.34568 c 8.522493,-6.7375 31.265632,-24.625 50.540309,-39.75 l 35.044872,-27.5 33.08054,-59.5 33.08055,-59.5 50.51672,-38.9603 50.51673,-38.9603 2.91387,-7.0397 c 1.60262,-3.87184 7.06187,-17.8397 12.13164,-31.0397 5.06978,-13.2 9.40172,-24.20309 9.62654,-24.4513 0.92409,-1.02027 21.56833,6.6158 31.39417,11.61235 17.70682,9.00413 15.83642,5.20842 21.93287,44.5095 l 5.22303,33.67054 -1.7913,45.34782 -1.7913,45.34781 8.13051,25.48164 c 4.47179,14.0149 10.46783,33.53569 13.32454,43.37952 l 5.19402,17.89788 -1.73438,8.07102 c -2.47043,11.49628 -6.27675,24.31296 -8.94903,30.13322 -1.2826,2.79354 -6.66642,9.85421 -12.20011,16 -5.44745,6.05 -10.94513,12.4625 -12.21708,14.25 l -2.31264,3.25 -168.57526,0 -168.5752524,0 15.4954414,-12.25 z"
       id="path4489"
       inkscape:connector-curvature="0"
       transform="translate(0,343.70079)" />
    <path
       style="fill:#3e2723;fill-opacity:0"
       d="m 16.756939,694.34568 c 8.522493,-6.7375 31.265632,-24.625 50.540309,-39.75 l 35.044872,-27.5 33.08054,-59.5 33.08055,-59.5 50.51672,-38.9603 50.51673,-38.9603 2.91387,-7.0397 c 1.60262,-3.87184 7.06187,-17.8397 12.13164,-31.0397 5.06978,-13.2 9.40172,-24.20309 9.62654,-24.4513 0.92409,-1.02027 21.56833,6.6158 31.39417,11.61235 17.70682,9.00413 15.83642,5.20842 21.93287,44.5095 l 5.22303,33.67054 -1.7913,45.34782 -1.7913,45.34781 8.13051,25.48164 c 4.47179,14.0149 10.46783,33.53569 13.32454,43.37952 l 5.19402,17.89788 -1.73438,8.07102 c -2.47043,11.49628 -6.27675,24.31296 -8.94903,30.13322 -1.2826,2.79354 -6.66642,9.85421 -12.20011,16 -5.44745,6.05 -10.94513,12.4625 -12.21708,14.25 l -2.31264,3.25 -168.57526,0 -168.5752524,0 15.4954414,-12.25 z"
       id="path4491"
       inkscape:connector-curvature="0"
       transform="translate(0,343.70079)" />
    <path
       style="fill:#3e2723;fill-opacity:0"
       d="m 16.756939,694.34568 c 8.522493,-6.7375 31.265632,-24.625 50.540309,-39.75 l 35.044872,-27.5 33.08054,-59.5 33.08055,-59.5 50.51672,-38.9603 50.51673,-38.9603 2.91387,-7.0397 c 1.60262,-3.87184 7.06187,-17.8397 12.13164,-31.0397 5.06978,-13.2 9.40172,-24.20309 9.62654,-24.4513 0.92409,-1.02027 21.56833,6.6158 31.39417,11.61235 17.70682,9.00413 15.83642,5.20842 21.93287,44.5095 l 5.22303,33.67054 -1.7913,45.34782 -1.7913,45.34781 8.13051,25.48164 c 4.47179,14.0149 10.46783,33.53569 13.32454,43.37952 l 5.19402,17.89788 -1.73438,8.07102 c -2.47043,11.49628 -6.27675,24.31296 -8.94903,30.13322 -1.2826,2.79354 -6.66642,9.85421 -12.20011,16 -5.44745,6.05 -10.94513,12.4625 -12.21708,14.25 l -2.31264,3.25 -168.57526,0 -168.5752524,0 15.4954414,-12.25 z"
       id="path4493"
       inkscape:connector-curvature="0"
       transform="translate(0,343.70079)" />
    <path
       style="fill:#3e2723;fill-opacity:0"
       d="m 16.756939,694.34568 c 8.522493,-6.7375 31.265632,-24.625 50.540309,-39.75 l 35.044872,-27.5 33.08054,-59.5 33.08055,-59.5 50.51672,-38.9603 50.51673,-38.9603 2.91387,-7.0397 c 1.60262,-3.87184 7.06187,-17.8397 12.13164,-31.0397 5.06978,-13.2 9.40172,-24.20309 9.62654,-24.4513 0.92409,-1.02027 21.56833,6.6158 31.39417,11.61235 17.70682,9.00413 15.83642,5.20842 21.93287,44.5095 l 5.22303,33.67054 -1.7913,45.34782 -1.7913,45.34781 8.13051,25.48164 c 4.47179,14.0149 10.46783,33.53569 13.32454,43.37952 l 5.19402,17.89788 -1.73438,8.07102 c -2.47043,11.49628 -6.27675,24.31296 -8.94903,30.13322 -1.2826,2.79354 -6.66642,9.85421 -12.20011,16 -5.44745,6.05 -10.94513,12.4625 -12.21708,14.25 l -2.31264,3.25 -168.57526,0 -168.5752524,0 15.4954414,-12.25 z"
       id="path4495"
       inkscape:connector-curvature="0"
       transform="translate(0,343.70079)" />
    <path
       style="fill:#3e2723;fill-opacity:0"
       d="m 342.40977,702.33102 c 1.61561,-2.32944 6.85006,-8.51034 11.63211,-13.73534 11.7045,-12.78868 14.41059,-18.52311 19.96873,-42.31539 l 2.52659,-10.81539 -6.96832,-24.18461 c -3.83258,-13.30153 -9.79349,-32.96779 -13.24647,-43.70278 l -6.27814,-19.51817 1.82228,-44.98183 1.82229,-44.98183 -5.28591,-34 c -5.02691,-32.33406 -5.41724,-34.12514 -7.96617,-36.55392 -3.94525,-3.75928 -25.06047,-14.30138 -35.13856,-17.54347 -8.6932,-2.79658 -10.9914,-4.40261 -6.30003,-4.40261 5.59325,0 39.46395,-3.2118 58.55003,-5.55203 16.33556,-2.00297 48.44844,-6.88958 72.5,-11.0323 1.65,-0.2842 -9.825,6.05492 -25.5,14.08694 -15.675,8.03201 -28.83392,14.93617 -29.24205,15.34257 -0.40813,0.4064 -2.11927,9.45651 -3.80255,20.11134 l -3.0605,19.37243 1.56957,13.58552 c 2.29032,19.82402 5.20455,37.59858 6.58846,40.18443 1.72719,3.2273 30.86726,50.90622 32.94289,53.9011 0.95296,1.375 4.01164,9.25 6.79709,17.5 10.54835,31.24242 8.40347,27.63302 35.32436,59.44383 l 24.07148,28.44382 18.90992,37.80964 18.90993,37.80964 -87.04226,-0.0181 -87.04225,-0.0181 2.93748,-4.23534 0,-5e-5 z"
       id="path4497"
       inkscape:connector-curvature="0"
       transform="translate(0,343.70079)" />
    <path
       style="fill:#3e2723;fill-opacity:0"
       d="m 342.40977,702.33102 c 1.61561,-2.32944 6.85006,-8.51034 11.63211,-13.73534 11.7045,-12.78868 14.41059,-18.52311 19.96873,-42.31539 l 2.52659,-10.81539 -6.96832,-24.18461 c -3.83258,-13.30153 -9.79349,-32.96779 -13.24647,-43.70278 l -6.27814,-19.51817 1.82228,-44.98183 1.82229,-44.98183 -5.28591,-34 c -5.02691,-32.33406 -5.41724,-34.12514 -7.96617,-36.55392 -3.94525,-3.75928 -25.06047,-14.30138 -35.13856,-17.54347 -8.6932,-2.79658 -10.9914,-4.40261 -6.30003,-4.40261 5.59325,0 39.46395,-3.2118 58.55003,-5.55203 16.33556,-2.00297 48.44844,-6.88958 72.5,-11.0323 1.65,-0.2842 -9.825,6.05492 -25.5,14.08694 -15.675,8.03201 -28.83392,14.93617 -29.24205,15.34257 -0.40813,0.4064 -2.11927,9.45651 -3.80255,20.11134 l -3.0605,19.37243 1.56957,13.58552 c 2.29032,19.82402 5.20455,37.59858 6.58846,40.18443 1.72719,3.2273 30.86726,50.90622 32.94289,53.9011 0.95296,1.375 4.01164,9.25 6.79709,17.5 10.54835,31.24242 8.40347,27.63302 35.32436,59.44383 l 24.07148,28.44382 18.90992,37.80964 18.90993,37.80964 -87.04226,-0.0181 -87.04225,-0.0181 2.93748,-4.23534 0,-5e-5 z"
       id="path4499"
       inkscape:connector-curvature="0"
       transform="translate(0,343.70079)" />
    <path
       style="fill:#3e2723;fill-opacity:0"
       d="m 342.40977,702.33102 c 1.61561,-2.32944 6.85006,-8.51034 11.63211,-13.73534 11.7045,-12.78868 14.41059,-18.52311 19.96873,-42.31539 l 2.52659,-10.81539 -6.96832,-24.18461 c -3.83258,-13.30153 -9.79349,-32.96779 -13.24647,-43.70278 l -6.27814,-19.51817 1.82228,-44.98183 1.82229,-44.98183 -5.28591,-34 c -5.02691,-32.33406 -5.41724,-34.12514 -7.96617,-36.55392 -3.94525,-3.75928 -25.06047,-14.30138 -35.13856,-17.54347 -8.6932,-2.79658 -10.9914,-4.40261 -6.30003,-4.40261 5.59325,0 39.46395,-3.2118 58.55003,-5.55203 16.33556,-2.00297 48.44844,-6.88958 72.5,-11.0323 1.65,-0.2842 -9.825,6.05492 -25.5,14.08694 -15.675,8.03201 -28.83392,14.93617 -29.24205,15.34257 -0.40813,0.4064 -2.11927,9.45651 -3.80255,20.11134 l -3.0605,19.37243 1.56957,13.58552 c 2.29032,19.82402 5.20455,37.59858 6.58846,40.18443 1.72719,3.2273 30.86726,50.90622 32.94289,53.9011 0.95296,1.375 4.01164,9.25 6.79709,17.5 10.54835,31.24242 8.40347,27.63302 35.32436,59.44383 l 24.07148,28.44382 18.90992,37.80964 18.90993,37.80964 -87.04226,-0.0181 -87.04225,-0.0181 2.93748,-4.23534 0,-5e-5 z"
       id="path4501"
       inkscape:connector-curvature="0"
       transform="translate(0,343.70079)" />
    <path
       style="fill:#3e2723;fill-opacity:0"
       d="m 342.40977,702.33102 c 1.61561,-2.32944 6.85006,-8.51034 11.63211,-13.73534 11.7045,-12.78868 14.41059,-18.52311 19.96873,-42.31539 l 2.52659,-10.81539 -6.96832,-24.18461 c -3.83258,-13.30153 -9.79349,-32.96779 -13.24647,-43.70278 l -6.27814,-19.51817 1.82228,-44.98183 1.82229,-44.98183 -5.28591,-34 c -5.02691,-32.33406 -5.41724,-34.12514 -7.96617,-36.55392 -3.94525,-3.75928 -25.06047,-14.30138 -35.13856,-17.54347 -8.6932,-2.79658 -10.9914,-4.40261 -6.30003,-4.40261 5.59325,0 39.46395,-3.2118 58.55003,-5.55203 16.33556,-2.00297 48.44844,-6.88958 72.5,-11.0323 1.65,-0.2842 -9.825,6.05492 -25.5,14.08694 -15.675,8.03201 -28.83392,14.93617 -29.24205,15.34257 -0.40813,0.4064 -2.11927,9.45651 -3.80255,20.11134 l -3.0605,19.37243 1.56957,13.58552 c 2.29032,19.82402 5.20455,37.59858 6.58846,40.18443 1.72719,3.2273 30.86726,50.90622 32.94289,53.9011 0.95296,1.375 4.01164,9.25 6.79709,17.5 10.54835,31.24242 8.40347,27.63302 35.32436,59.44383 l 24.07148,28.44382 18.90992,37.80964 18.90993,37.80964 -87.04226,-0.0181 -87.04225,-0.0181 2.93748,-4.23534 0,-5e-5 z"
       id="path4503"
       inkscape:connector-curvature="0"
       transform="translate(0,343.70079)" />
    <path
       style="fill:#3e2723;fill-opacity:0;stroke-width:1.2;stroke-miterlimit:4;stroke-dasharray:none"
       d="m 16.756939,694.34568 c 8.522493,-6.7375 31.265632,-24.625 50.540309,-39.75 l 35.044872,-27.5 33.08054,-59.5 33.08055,-59.5 50.51672,-38.9603 50.51673,-38.9603 2.91387,-7.0397 c 1.60262,-3.87184 7.06187,-17.8397 12.13164,-31.0397 5.06978,-13.2 9.40172,-24.20309 9.62654,-24.4513 0.92409,-1.02027 21.56833,6.6158 31.39417,11.61235 17.70682,9.00413 15.83642,5.20842 21.93287,44.5095 l 5.22303,33.67054 -1.7913,45.34782 -1.7913,45.34781 8.13051,25.48164 c 4.47179,14.0149 10.46783,33.53569 13.32454,43.37952 l 5.19402,17.89788 -1.73438,8.07102 c -2.47043,11.49628 -6.27675,24.31296 -8.94903,30.13322 -1.2826,2.79354 -6.66642,9.85421 -12.20011,16 -5.44745,6.05 -10.94513,12.4625 -12.21708,14.25 l -2.31264,3.25 -168.57526,0 -168.5752524,0 15.4954414,-12.25 z"
       id="path4513"
       inkscape:connector-curvature="0"
       transform="translate(0,343.70079)" />
    <path
       style="fill:#3e2723;fill-opacity:0;stroke-width:1.20000005;stroke-miterlimit:4;stroke-dasharray:none"
       d="m 675.5482,707.5404 c -9.625,-0.38559 -49.78635,-0.75589 -89.24744,-0.82289 l -71.74743,-0.12183 -19.00625,-38.00223 -19.00624,-38.00224 -24.36336,-28.80228 -24.36336,-28.80229 -6.19135,-17.44548 c -3.40524,-9.59501 -7.03844,-19.75369 -8.07378,-22.57483 -1.03534,-2.82115 -9.92131,-18.34615 -19.74659,-34.5 l -17.86415,-29.37065 -2.71202,-18.5 c -4.25327,-29.01354 -4.31776,-31.91908 -1.16526,-52.5 1.51644,-9.9 3.25893,-18.51678 3.87219,-19.14841 1.78609,-1.83954 41.49462,-21.80535 42.1211,-21.17886 0.31243,0.31242 1.89361,12.21387 3.51375,26.44766 3.98409,35.00251 7.13336,56.49151 8.93058,60.9378 0.60093,1.48667 6.34632,4.37607 20.69077,10.40554 10.92236,4.59105 20.38574,8.83986 21.02973,9.44181 0.64399,0.60195 4.62033,12.24733 8.83632,25.87861 7.56222,24.4504 7.93777,25.34588 27.88876,66.5 l 20.22331,41.71585 31.25448,40.15059 31.25448,40.15059 14.68588,8.52399 14.68588,8.52398 31.5,4.09627 c 17.325,2.25294 33.525,4.3118 36,4.57525 2.475,0.26344 6.75,1.11382 9.5,1.88974 l 5,1.41076 -5,-0.0877 c -2.75,-0.0482 -12.875,-0.40317 -22.5,-0.78875 z"
       id="path4531"
       inkscape:connector-curvature="0"
       transform="translate(0,343.70079)" />
    <path
       style="fill:#3e2723;fill-opacity:0;stroke-width:1.20000005;stroke-miterlimit:4;stroke-dasharray:none"
       d="m 16.756939,694.34568 c 8.522493,-6.7375 31.265632,-24.625 50.540309,-39.75 l 35.044872,-27.5 33.08054,-59.5 33.08055,-59.5 50.51672,-38.9603 50.51673,-38.9603 2.91387,-7.0397 c 1.60262,-3.87184 7.06187,-17.8397 12.13164,-31.0397 5.06978,-13.2 9.40172,-24.20309 9.62654,-24.4513 0.92409,-1.02027 21.56833,6.6158 31.39417,11.61235 17.70682,9.00413 15.83642,5.20842 21.93287,44.5095 l 5.22303,33.67054 -1.7913,45.34782 -1.7913,45.34781 8.13051,25.48164 c 4.47179,14.0149 10.46783,33.53569 13.32454,43.37952 l 5.19402,17.89788 -1.73438,8.07102 c -2.47043,11.49628 -6.27675,24.31296 -8.94903,30.13322 -1.2826,2.79354 -6.66642,9.85421 -12.20011,16 -5.44745,6.05 -10.94513,12.4625 -12.21708,14.25 l -2.31264,3.25 -168.57526,0 -168.5752524,0 15.4954414,-12.25 z"
       id="path4533"
       inkscape:connector-curvature="0"
       transform="translate(0,343.70079)" />
    <path
       style="fill:#3e2723;fill-opacity:0;stroke-width:1.20000005;stroke-miterlimit:4;stroke-dasharray:none"
       d="m 16.756939,694.34568 c 8.522493,-6.7375 31.265632,-24.625 50.540309,-39.75 l 35.044872,-27.5 33.08054,-59.5 33.08055,-59.5 50.51672,-38.9603 50.51673,-38.9603 2.91387,-7.0397 c 1.60262,-3.87184 7.06187,-17.8397 12.13164,-31.0397 5.06978,-13.2 9.40172,-24.20309 9.62654,-24.4513 0.92409,-1.02027 21.56833,6.6158 31.39417,11.61235 17.70682,9.00413 15.83642,5.20842 21.93287,44.5095 l 5.22303,33.67054 -1.7913,45.34782 -1.7913,45.34781 8.13051,25.48164 c 4.47179,14.0149 10.46783,33.53569 13.32454,43.37952 l 5.19402,17.89788 -1.73438,8.07102 c -2.47043,11.49628 -6.27675,24.31296 -8.94903,30.13322 -1.2826,2.79354 -6.66642,9.85421 -12.20011,16 -5.44745,6.05 -10.94513,12.4625 -12.21708,14.25 l -2.31264,3.25 -168.57526,0 -168.5752524,0 15.4954414,-12.25 z"
       id="path4535"
       inkscape:connector-curvature="0"
       transform="translate(0,343.70079)" />
  </g>
</svg>
